<svg version="1.0" xmlns="http://www.w3.org/2000/svg" width="85.333" height="85.333" viewBox="0 0 64 64"><path d="M22.3 4.5c0 2.7.2 3.8.4 2.2.2-1.5.2-3.7 0-5-.2-1.2-.4 0-.4 2.8zM28 4.4c0 2.5.5 4.6 1 4.6.6 0 1-1.8 1-3.9 0-2.2-.4-4.3-1-4.6-.6-.4-1 1.2-1 3.9zM34.7.7c-1.1 1-.8 8.3.3 8.3.6 0 1-2 1-4.5 0-4.6-.2-5-1.3-3.8zM41.3 4.5c0 2.7.2 3.8.4 2.2.2-1.5.2-3.7 0-5-.2-1.2-.4 0-.4 2.8zM13.7 13.8c-1.4 1.6-1.7 4.4-1.7 18.4 0 14.7.2 16.7 1.8 18.1 1.6 1.4 4.4 1.7 18.4 1.7 14.7 0 16.7-.2 18.1-1.8 1.4-1.6 1.7-4.4 1.7-18.4 0-14.7-.2-16.7-1.8-18.1-1.6-1.4-4.4-1.7-18.4-1.7-14.7 0-16.7.2-18.1 1.8zM46 18c1.8 1.8 2 3.3 2 14 0 16.1.1 16-16 16-10.7 0-12.2-.2-14-2-1.8-1.8-2-3.3-2-14s.2-12.2 2-14c1.8-1.8 3.3-2 14-2s12.2.2 14 2z"/><path d="M18.4 19.3c-.2.7-.3 6.9-.2 13.8l.3 12.4h27v-27l-13.3-.3c-10.3-.2-13.4 0-13.8 1.1zm14 10.4c2 5.9 2.1 8.6.2 6-1.7-2.2-4.2-2.2-5-.1-.4.9-.9 1.4-1.2 1.2C25.6 36 29 25 30 25c.4 0 1.5 2.1 2.4 4.7zm4.3 4.5c-.2 1.8-.4.4-.4-3.2s.2-5 .4-3.3c.2 1.8.2 4.8 0 6.5z"/><path d="M29 31c0 1.1.6 2 1.4 2 .9 0 1.2-.7.9-2-.3-1.1-.9-2-1.4-2-.5 0-.9.9-.9 2zM2.3 22.7c1.5.2 3.7.2 5 0 1.2-.2 0-.4-2.8-.4-2.7 0-3.8.2-2.2.4zM57.3 22.7c1.5.2 3.7.2 5 0 1.2-.2 0-.4-2.8-.4-2.7 0-3.8.2-2.2.4zM.5 29c.3.5 2.4 1 4.6 1 2.1 0 3.9-.5 3.9-1 0-.6-2.1-1-4.6-1-2.7 0-4.3.4-3.9 1zM55 29c0 .5 1.8 1 3.9 1 2.2 0 4.3-.5 4.6-1 .4-.6-1.2-1-3.9-1-2.5 0-4.6.4-4.6 1zM.5 35c-.4.6 1.2 1 3.9 1 2.5 0 4.6-.5 4.6-1 0-1.3-7.7-1.3-8.5 0zM55 35c0 .5 2.1 1 4.6 1 2.7 0 4.3-.4 3.9-1-.3-.6-2.4-1-4.6-1-2.1 0-3.9.4-3.9 1zM2.3 41.7c1.5.2 3.7.2 5 0 1.2-.2 0-.4-2.8-.4-2.7 0-3.8.2-2.2.4zM57.3 41.7c1.5.2 3.7.2 5 0 1.2-.2 0-.4-2.8-.4-2.7 0-3.8.2-2.2.4zM22.3 59.5c0 2.7.2 3.8.4 2.2.2-1.5.2-3.7 0-5-.2-1.2-.4 0-.4 2.8zM28 59.6c0 2.7.4 4.3 1 3.9 1.3-.8 1.3-8.5 0-8.5-.5 0-1 2.1-1 4.6zM34 58.9c0 2.2.5 4.3 1 4.6.6.4 1-1.2 1-3.9 0-2.5-.4-4.6-1-4.6-.5 0-1 1.8-1 3.9zM41.3 59.5c0 2.7.2 3.8.4 2.2.2-1.5.2-3.7 0-5-.2-1.2-.4 0-.4 2.8z"/></svg>