<?xml version="1.0" standalone="no"?>
<!DOCTYPE svg PUBLIC "-//W3C//DTD SVG 20010904//EN"
 "http://www.w3.org/TR/2001/REC-SVG-20010904/DTD/svg10.dtd">
<svg version="1.0" xmlns="http://www.w3.org/2000/svg"
 width="256.000000pt" height="256.000000pt" viewBox="0 0 256.000000 256.000000"
 preserveAspectRatio="xMidYMid meet">

<g transform="translate(0.000000,256.000000) scale(0.100000,-0.100000)"
fill="#000000" stroke="none">
<path d="M847 2430 c-62 -16 -112 -47 -156 -96 -48 -55 -71 -122 -71 -206 0
-129 -67 -191 -216 -201 -105 -7 -171 -35 -228 -98 -106 -118 -102 -268 10
-389 112 -120 112 -200 0 -320 -112 -121 -116 -271 -10 -389 58 -64 119 -90
239 -100 80 -7 99 -12 130 -35 50 -38 75 -93 75 -164 0 -177 121 -305 290
-306 82 -1 142 25 216 93 53 49 102 71 154 71 52 0 101 -22 154 -71 74 -68
134 -93 217 -93 166 0 289 131 289 306 0 71 25 126 75 164 31 23 50 28 130 35
120 10 181 36 239 100 106 118 102 268 -10 389 -112 120 -112 200 0 320 112
121 116 271 10 389 -57 63 -123 91 -228 98 -149 10 -216 72 -216 201 0 180
-121 306 -295 306 -83 0 -132 -22 -215 -96 -103 -91 -201 -91 -302 1 -29 26
-72 58 -95 69 -49 25 -133 35 -186 22z m123 -101 c21 -7 62 -34 92 -61 78 -72
127 -92 218 -92 89 0 141 21 210 85 99 93 200 102 286 27 50 -44 57 -62 64
-163 11 -138 56 -211 162 -264 48 -24 74 -31 122 -31 82 0 129 -15 173 -53 43
-37 63 -81 63 -136 0 -58 -15 -89 -71 -148 -67 -71 -93 -131 -93 -213 0 -82
26 -142 93 -213 56 -59 71 -90 71 -148 0 -55 -20 -99 -63 -136 -43 -37 -91
-53 -166 -53 -73 0 -120 -16 -177 -59 -73 -56 -105 -122 -113 -234 -8 -103
-15 -121 -65 -165 -86 -75 -187 -66 -286 27 -69 64 -121 85 -210 85 -89 0
-141 -21 -210 -85 -99 -93 -200 -102 -286 -27 -50 44 -57 62 -64 163 -11 138
-56 211 -162 264 -48 24 -74 31 -122 31 -82 0 -129 15 -173 53 -43 37 -63 81
-63 136 0 58 15 89 71 148 67 71 93 131 93 213 0 82 -26 142 -93 213 -56 59
-71 90 -71 148 0 55 20 99 63 136 44 38 91 53 173 53 48 0 74 7 122 31 106 53
151 126 162 264 3 49 11 99 17 110 19 35 69 76 109 90 48 17 76 18 124 4z"/>
<path d="M1225 1993 c-248 -19 -458 -133 -591 -319 -228 -320 -126 -755 226
-964 36 -22 108 -54 160 -72 93 -32 99 -33 260 -33 159 0 168 2 257 32 211 73
365 207 448 388 45 98 60 165 59 275 -1 155 -47 283 -149 412 -143 183 -423
300 -670 281z m151 -104 c407 -56 666 -427 541 -772 -35 -95 -73 -154 -147
-227 -187 -184 -484 -244 -741 -150 -430 157 -557 642 -249 950 85 85 157 131
260 166 120 40 216 50 336 33z"/>
<path d="M1293 1553 c-23 -4 -23 -5 -23 -209 l0 -204 25 0 c25 0 25 1 25 79
l0 78 54 6 c68 7 112 29 136 70 41 67 9 151 -65 173 -40 12 -109 15 -152 7z
m164 -69 c7 -10 13 -35 13 -55 0 -52 -35 -79 -101 -79 l-49 0 0 79 c0 79 0 80
28 83 41 5 95 -9 109 -28z"/>
<path d="M978 1503 c-9 -27 -40 -119 -71 -205 l-55 -158 28 0 c26 0 30 5 50
65 l22 65 77 0 77 0 20 -62 c17 -55 23 -63 47 -66 15 -2 27 0 27 5 0 4 -30 97
-67 205 l-68 198 -36 0 c-33 0 -36 -3 -51 -47z m78 -85 c15 -46 29 -89 32 -95
3 -10 -13 -13 -58 -13 -55 0 -62 2 -57 18 11 41 52 172 54 172 1 0 14 -37 29
-82z"/>
<path d="M1600 1345 l0 -205 30 0 30 0 0 205 0 205 -30 0 -30 0 0 -205z"/>
</g>
</svg>
