<svg xmlns="http://www.w3.org/2000/svg" width="84.515" height="95.928"><g data-name="Group 1146"><path data-name="Path 1534" d="m73.814 70.459-12.325 5.825a10.043 10.043 0 0 0-8.559-5.282l-11.379-.313a12.022 12.022 0 0 1-5.171-1.335l-1.159-.6a20.421 20.421 0 0 0-18.916.02l.072-2.623a1.574 1.574 0 0 0-1.53-1.617L2.37 64.191a1.573 1.573 0 0 0-1.616 1.53L.001 93.102a1.573 1.573 0 0 0 1.53 1.617l12.477.344h.043a1.574 1.574 0 0 0 1.574-1.53l.036-1.311 3.241-1.736a5.569 5.569 0 0 1 4.15-.454l19.357 5.433c.034.01.067.017.1.025a20.763 20.763 0 0 0 4.255.438 21.007 21.007 0 0 0 8.77-1.913 1.46 1.46 0 0 0 .2-.108L83.8 75.753a1.573 1.573 0 0 0 .515-2.1 7.948 7.948 0 0 0-10.5-3.2zM3.19 91.615l.666-24.235 9.332.256-.667 24.237zm50.928-.411a17.842 17.842 0 0 1-10.91 1.218l-19.3-5.419a8.7 8.7 0 0 0-6.486.71l-1.656.887.444-16.114a17.3 17.3 0 0 1 17.571-.938l1.159.6a15.206 15.206 0 0 0 6.531 1.687l11.38.313a6.9 6.9 0 0 1 6.559 5.5l-16.95-.468a1.574 1.574 0 1 0-.086 3.146l18.705.515h.044a1.573 1.573 0 0 0 1.572-1.53 10.015 10.015 0 0 0-.152-2.042l12.637-5.974.036-.018a4.809 4.809 0 0 1 5.437.762zm0 0"/><g data-name="Group 1330" fill="#007ce1"><path data-name="Path 1532" d="M43.37 52.353a1.5 1.5 0 0 0-.54-.018 3.578 3.578 0 0 1-3.163-3.548 1.573 1.573 0 1 0-3.147 0 6.73 6.73 0 0 0 4.948 6.481v1.574a1.574 1.574 0 0 0 3.148 0v-1.478a6.72 6.72 0 0 0-1.377-13.3 3.572 3.572 0 1 1 3.573-3.572 1.573 1.573 0 0 0 3.147 0 6.732 6.732 0 0 0-5.343-6.578v-1.431a1.574 1.574 0 0 0-3.148 0v1.528a6.719 6.719 0 0 0 1.771 13.2 3.57 3.57 0 0 1 .13 7.138zm0 0"/><path data-name="Path 1533" d="M20.423 43.763a22.817 22.817 0 1 0 22.818-22.817 22.817 22.817 0 0 0-22.818 22.817zm22.818-19.67a19.67 19.67 0 1 1-19.671 19.67 19.669 19.669 0 0 1 19.671-19.67zm0 0"/><path data-name="Path 1535" d="M44.814 16.521V1.574a1.573 1.573 0 1 0-3.147 0v14.948a1.573 1.573 0 1 0 3.147 0zm0 0"/><path data-name="Path 1536" d="M56.616 16.521v-7.08a1.574 1.574 0 1 0-3.148 0v7.08a1.574 1.574 0 1 0 3.148 0zm0 0"/><path data-name="Path 1537" d="M33.012 16.521v-7.08a1.573 1.573 0 1 0-3.146 0v7.08a1.573 1.573 0 1 0 3.146 0zm0 0"/></g></g></svg>