<svg xmlns="http://www.w3.org/2000/svg" width="78.72" height="96"><g data-name="Group 1343"><g data-name="Group 1342" fill="#007ce1"><path data-name="Path 1883" d="M39.36 30.653a8.707 8.707 0 1 0 8.707 8.707 8.716 8.716 0 0 0-8.707-8.707zm0 14.913a6.206 6.206 0 1 1 6.206-6.206 6.212 6.212 0 0 1-6.206 6.206zm0 0"/><path data-name="Path 1884" d="M54.977 35.716h-2.146a13.72 13.72 0 0 0-1.37-3.3l1.519-1.519a2.024 2.024 0 0 0 0-2.859l-2.293-2.293a2.023 2.023 0 0 0-2.861 0l-1.517 1.518a13.766 13.766 0 0 0-3.3-1.37v-2.146a2.024 2.024 0 0 0-2.023-2.022h-3.247a2.024 2.024 0 0 0-2.023 2.022v2.146a13.766 13.766 0 0 0-3.3 1.37l-1.517-1.518a2.023 2.023 0 0 0-2.861 0l-2.293 2.293a2.021 2.021 0 0 0 0 2.859l1.519 1.519a13.72 13.72 0 0 0-1.37 3.3h-2.146a2.026 2.026 0 0 0-2.023 2.023v3.243a2.026 2.026 0 0 0 2.023 2.023h2.146a13.736 13.736 0 0 0 1.37 3.3l-1.519 1.517a2.023 2.023 0 0 0 0 2.861l2.293 2.293a2.027 2.027 0 0 0 2.861 0l1.517-1.518a13.765 13.765 0 0 0 3.3 1.369v2.146A2.025 2.025 0 0 0 37.739 57h3.242a2.025 2.025 0 0 0 2.023-2.023v-2.146a13.765 13.765 0 0 0 3.3-1.369l1.518 1.518a2.026 2.026 0 0 0 2.86 0l2.293-2.294a2.026 2.026 0 0 0 0-2.86l-1.519-1.517a13.736 13.736 0 0 0 1.37-3.3h2.146a2.026 2.026 0 0 0 2.023-2.023v-3.243a2.026 2.026 0 0 0-2.023-2.023zm-.478 4.786h-2.663a1.252 1.252 0 0 0-1.229 1.017 11.325 11.325 0 0 1-1.768 4.267 1.253 1.253 0 0 0 .15 1.588l1.883 1.883-1.616 1.616-1.883-1.884a1.25 1.25 0 0 0-1.587-.149 11.337 11.337 0 0 1-4.268 1.768 1.25 1.25 0 0 0-1.016 1.228l-.005 2.664h-2.278v-2.663a1.249 1.249 0 0 0-1.016-1.228 11.337 11.337 0 0 1-4.268-1.768 1.25 1.25 0 0 0-1.587.149l-1.883 1.884-1.616-1.616 1.883-1.883a1.25 1.25 0 0 0 .15-1.588 11.326 11.326 0 0 1-1.768-4.267 1.252 1.252 0 0 0-1.229-1.017h-2.666v-2.285h2.662a1.251 1.251 0 0 0 1.229-1.016 11.326 11.326 0 0 1 1.768-4.267 1.249 1.249 0 0 0-.15-1.587l-1.883-1.883 1.616-1.616 1.883 1.883a1.25 1.25 0 0 0 1.587.15 11.337 11.337 0 0 1 4.268-1.768 1.249 1.249 0 0 0 1.016-1.228v-2.663H40.5v2.663a1.25 1.25 0 0 0 1.016 1.228 11.32 11.32 0 0 1 4.268 1.768 1.25 1.25 0 0 0 1.587-.15l1.883-1.883 1.616 1.616-1.883 1.883a1.252 1.252 0 0 0-.15 1.587 11.325 11.325 0 0 1 1.768 4.267 1.251 1.251 0 0 0 1.229 1.016h2.663zm0 0"/></g><path data-name="Path 1885" d="M6.041 37.954H1.406a1.407 1.407 0 0 0 0 2.813h4.635a1.407 1.407 0 0 0 0-2.813zm0 0" fill="#1a1818"/><path data-name="Path 1886" d="M77.319 37.954h-4.635a1.407 1.407 0 0 0 0 2.813h4.635a1.407 1.407 0 0 0 0-2.813zm0 0" fill="#1a1818"/><path data-name="Path 1887" d="M16.794 61.927a1.406 1.406 0 0 0-1.99 0l-3.276 3.276a1.406 1.406 0 0 0 1.988 1.99l3.278-3.278a1.4 1.4 0 0 0 0-1.988zm0 0" fill="#1a1818"/><path data-name="Path 1888" d="M67.192 11.528a1.409 1.409 0 0 0-1.989 0l-3.276 3.278a1.406 1.406 0 0 0 1.988 1.988l3.277-3.276a1.408 1.408 0 0 0 0-1.99zm0 0" fill="#1a1818"/><path data-name="Path 1889" d="M39.36 0a1.406 1.406 0 0 0-1.406 1.406v4.635a1.406 1.406 0 1 0 2.812 0V1.406A1.407 1.407 0 0 0 39.36 0zm0 0" fill="#1a1818"/><path data-name="Path 1890" d="m67.192 65.2-3.273-3.273a1.406 1.406 0 0 0-1.99 1.988l3.278 3.278a1.407 1.407 0 1 0 1.989-1.99zm0 0" fill="#1a1818"/><path data-name="Path 1891" d="m16.794 14.806-3.278-3.278a1.406 1.406 0 0 0-1.988 1.99l3.276 3.276a1.406 1.406 0 0 0 1.99-1.988zm0 0" fill="#1a1818"/><path data-name="Path 1892" d="M67.856 35.912a28.715 28.715 0 0 0-25.046-25.05 1.407 1.407 0 0 0-.335 2.793 25.784 25.784 0 0 1 22.589 22.591 1.406 1.406 0 1 0 2.792-.334zm0 0" fill="#1a1818"/><path data-name="Path 1893" d="M66.626 41.245a1.41 1.41 0 0 0-1.565 1.23 26 26 0 0 1-12.828 19.352 3.228 3.228 0 0 0-1.623 2.792v6.651h-22.5v-6.645a3.237 3.237 0 0 0-1.624-2.8 25.895 25.895 0 0 1 9.76-48.171 1.406 1.406 0 0 0-.332-2.793 28.707 28.707 0 0 0-10.829 53.4.418.418 0 0 1 .213.359v6.991a4.144 4.144 0 0 0-2.482 3.79v2.151a4.119 4.119 0 0 0 1.032 2.729 4.126 4.126 0 0 0-1.032 2.731v2.15a4.141 4.141 0 0 0 4.136 4.136h4.429a8.1 8.1 0 0 0 15.958 0h4.428a4.141 4.141 0 0 0 4.137-4.136v-2.15a4.122 4.122 0 0 0-1.033-2.731 4.113 4.113 0 0 0 1.033-2.729v-2.151a4.141 4.141 0 0 0-2.482-3.79v-7a.411.411 0 0 1 .211-.352 28.826 28.826 0 0 0 14.221-21.458 1.406 1.406 0 0 0-1.228-1.564zM34.259 89.3h10.2a5.3 5.3 0 0 1-10.2 0zm18.833-4.136a1.325 1.325 0 0 1-1.325 1.323H26.952a1.324 1.324 0 0 1-1.323-1.323v-2.15a1.324 1.324 0 0 1 1.323-1.324h24.815a1.325 1.325 0 0 1 1.325 1.324zm0-7.61a1.326 1.326 0 0 1-1.325 1.323l-24.815-2.15a1.324 1.324 0 0 1-1.323-1.323v-2.151a1.324 1.324 0 0 1 1.323-1.323h24.815a1.326 1.326 0 0 1 1.325 1.323zm0 0" fill="#1a1818"/></g></svg>