<svg xmlns="http://www.w3.org/2000/svg" width="48.059" height="48.059"><g data-name="Group 1155" fill="#202832"><path data-name="Path 1539" d="M46.154 9.657a10.789 10.789 0 0 0-1.136-2.731l.9-1.8-2.982-2.984-1.8.9a10.7 10.7 0 0 0-2.733-1.136L37.766 0h-4.218l-.635 1.906a10.7 10.7 0 0 0-2.733 1.136l-1.8-.9-2.982 2.982.9 1.8a10.752 10.752 0 0 0-1.136 2.733l-1.906.635V12.4H3.875A3.88 3.88 0 0 0 0 16.279v23.254a3.879 3.879 0 0 0 3.875 3.875h10.078v3.1h-3.1v1.55h26.355v-1.55h-3.1v-3.1h10.078a3.879 3.879 0 0 0 3.875-3.875v-29.24zm-13.6 36.852-17.054.636v-3.1h17.053zm11.627-4.651L3.875 39.394a2.329 2.329 0 0 1-2.326-2.326v-.776h44.959v.776a2.329 2.329 0 0 1-2.326 2.326zm2.326-4.651L1.55 34.743V16.279a2.328 2.328 0 0 1 2.326-2.325h19.378v.558l1.906.635a10.7 10.7 0 0 0 1.136 2.733l-.9 1.8 2.982 2.982 1.8-.9a10.76 10.76 0 0 0 2.734 1.136l.635 1.906h4.217l.635-1.906a10.684 10.684 0 0 0 2.733-1.136l1.8.9 2.984-2.982-.9-1.8a10.8 10.8 0 0 0 1.136-2.733l.356-.117zm0-23.813-1.673.558-.093.431a9.267 9.267 0 0 1-1.264 3.04l-.238.371.792 1.581-1.4 1.4-1.582-.792-.371.239a9.215 9.215 0 0 1-3.038 1.263l-.431.093-.559 1.673h-1.982l-.559-1.673-.431-.093a9.216 9.216 0 0 1-3.038-1.263l-.371-.239-1.582.792-1.4-1.4.792-1.581-.239-.371a9.207 9.207 0 0 1-1.263-3.04l-.093-.431-1.673-.558.001-1.984 1.673-.558.093-.431a9.235 9.235 0 0 1 1.263-3.04l.239-.371-.792-1.581 1.4-1.4 1.582.792.371-.239a9.229 9.229 0 0 1 3.038-1.263l.431-.093.559-1.673h1.984l.558 1.673.431.093a9.247 9.247 0 0 1 3.038 1.264l.371.239 1.582-.792 1.4 1.4-.792 1.582.238.371a9.213 9.213 0 0 1 1.264 3.04l.093.431 1.673.558zm0 0"/><path data-name="Path 1540" d="M35.657 4.651a7.751 7.751 0 1 0 7.751 7.751 7.761 7.761 0 0 0-7.751-7.751zm0 13.952a6.2 6.2 0 1 1 6.2-6.2 6.207 6.207 0 0 1-6.2 6.2zm0 0"/><path data-name="Path 1541" d="M35.657 9.302a3.1 3.1 0 1 0 3.1 3.1 3.1 3.1 0 0 0-3.1-3.1zm0 4.651a1.551 1.551 0 1 1 1.55-1.551 1.553 1.553 0 0 1-1.55 1.551zm0 0"/><path data-name="Path 1542" d="M4.651 18.603v.776a1.551 1.551 0 0 1-1.55 1.55v1.551a1.552 1.552 0 0 1 1.55 1.55v.776a2.329 2.329 0 0 0 2.325 2.326h.774v-1.551h-.772a.776.776 0 0 1-.776-.774v-.776a3.1 3.1 0 0 1 0-4.651v-.776a.776.776 0 0 1 .776-.774h.774v-1.55h-.774a2.328 2.328 0 0 0-2.325 2.324zm0 0"/><path data-name="Path 1543" d="M28.68 26.355v-.776a2.329 2.329 0 0 0-2.326-2.325h-.776v1.551h.776a.776.776 0 0 1 .776.774v.776a3.1 3.1 0 0 1 0 4.651v.774a.776.776 0 0 1-.776.776h-.776v1.55h.776a2.328 2.328 0 0 0 2.326-2.325v-.774a1.551 1.551 0 0 1 1.55-1.55v-1.552a1.552 1.552 0 0 1-1.55-1.55zm0 0"/><path data-name="Rectangle 443" d="M9.302 17.053H24.03v1.55H9.302z"/><path data-name="Rectangle 444" d="M12.402 20.154h11.627v1.55H12.402z"/><path data-name="Rectangle 445" d="M9.302 20.154h1.55v1.55h-1.55z"/><path data-name="Rectangle 446" d="M9.302 23.254H24.03v1.55H9.302z"/><path data-name="Rectangle 447" d="M9.302 26.355H24.03v1.55H9.302z"/><path data-name="Rectangle 448" d="M22.479 29.455h1.55v1.55h-1.55z"/><path data-name="Rectangle 449" d="M9.302 29.455h11.627v1.55H9.302z"/><path data-name="Rectangle 450" d="M9.302 32.556H24.03v1.55H9.302z"/></g></svg>