<svg xmlns="http://www.w3.org/2000/svg" width="73.152" height="47.898"><g data-name="Group 1160" fill="#202832"><g data-name="Group 1159"><path data-name="Path 1551" d="M32.925 47.9H5.987A5.988 5.988 0 0 1 0 41.913V10.478A1.5 1.5 0 0 1 .439 9.42L9.42.439A1.5 1.5 0 0 1 10.478 0h22.447a5.988 5.988 0 0 1 5.987 5.987V41.91a5.988 5.988 0 0 1-5.987 5.99zM2.989 11.1v30.81a2.993 2.993 0 0 0 2.994 2.994h26.942a2.993 2.993 0 0 0 2.994-2.994V5.987a2.993 2.993 0 0 0-2.994-2.994H11.098zm0 0"/><path data-name="Path 1552" d="M11.975 19.462a1.5 1.5 0 1 1-1.5-1.5 1.5 1.5 0 0 1 1.5 1.5zm0 0"/><path data-name="Path 1553" d="M11.975 26.943a1.5 1.5 0 1 1-1.5-1.5 1.5 1.5 0 0 1 1.5 1.5zm0 0"/><path data-name="Path 1554" d="M11.975 34.427a1.5 1.5 0 1 1-1.5-1.5 1.5 1.5 0 0 1 1.5 1.5zm0 0"/><path data-name="Path 1555" d="M28.443 20.956H16.465a1.5 1.5 0 0 1 0-2.994h11.978a1.5 1.5 0 1 1 0 2.994zm0 0"/><path data-name="Path 1556" d="M28.443 28.44H16.465a1.5 1.5 0 0 1 0-2.994h11.978a1.5 1.5 0 1 1 0 2.994zm0 0"/><path data-name="Path 1557" d="M28.443 35.924H16.465a1.5 1.5 0 1 1 0-2.994h11.978a1.5 1.5 0 1 1 0 2.994zm0 0"/></g><path data-name="Rectangle 456" d="m22.616 20.065 1.668-2.072L48.24 37.275l-1.667 2.072z"/><path data-name="Path 1558" d="M73.152 46.73h-26.61V30.764h26.61zm-23.949-2.661 21.283-15.966v5.322H49.203z"/><path data-name="Rectangle 40" d="M53.195 37.417h5.322v2.661h-5.322z"/><path data-name="Rectangle 41" d="M62.508 37.417h5.322v2.661h-5.322z"/></g></svg>