<svg xmlns="http://www.w3.org/2000/svg" width="36.174" height="47.863"><g data-name="Group 1179"><g data-name="Group 1165" fill="#1a1f23"><path data-name="Path 1574" d="M29.25 42.545H5.318A5.318 5.318 0 0 1 0 37.227V9.307a1.331 1.331 0 0 1 .389-.94L8.366.39a1.328 1.328 0 0 1 .94-.39h19.943a5.318 5.318 0 0 1 5.318 5.318v31.909a5.318 5.318 0 0 1-5.318 5.318zM2.659 9.857v27.37a2.66 2.66 0 0 0 2.659 2.659h23.931a2.659 2.659 0 0 0 2.659-2.659l-.001-31.909a2.659 2.659 0 0 0-2.659-2.659H9.857zm0 0"/><path data-name="Path 1575" d="M10.636 17.284a1.33 1.33 0 1 1-1.33-1.33 1.329 1.329 0 0 1 1.33 1.33zm0 0"/><path data-name="Path 1576" d="M10.636 23.932a1.33 1.33 0 1 1-1.33-1.33 1.329 1.329 0 0 1 1.33 1.33zm0 0"/><path data-name="Path 1577" d="M10.636 30.58a1.33 1.33 0 1 1-1.33-1.33 1.329 1.329 0 0 1 1.33 1.33zm0 0"/><path data-name="Path 1578" d="M25.261 18.613H14.625a1.33 1.33 0 0 1 0-2.659h10.636a1.33 1.33 0 0 1 0 2.659zm0 0"/><path data-name="Path 1579" d="M25.261 25.261H14.625a1.33 1.33 0 0 1 0-2.659h10.636a1.33 1.33 0 0 1 0 2.659zm0 0"/><path data-name="Path 1580" d="M25.261 31.909H14.625a1.33 1.33 0 0 1 0-2.659h10.636a1.33 1.33 0 0 1 0 2.659zm0 0"/></g><g data-name="Group 1167"><g data-name="Group 1166"><path data-name="Rectangle 460" fill="#fff" d="M15.565 36.562h19.943v10.636H15.565z"/><path data-name="Path 1581" d="M36.173 47.863H14.901V35.897h21.272zm-19.943-1.33h18.613v-9.306H16.231z" fill="#1a1f23"/></g><path data-name="Rectangle 461" fill="#1a1f23" d="M19.052 38.982h2.659V44.3h-2.659z"/><path data-name="Rectangle 462" fill="#1a1f23" d="M23.268 41.641h1.33V44.3h-1.33z"/><path data-name="Rectangle 463" fill="#1a1f23" d="M26.819 41.641h1.33V44.3h-1.33z"/><path data-name="Rectangle 464" fill="#1a1f23" d="M30.37 41.641h1.33V44.3h-1.33z"/></g></g></svg>