<svg xmlns="http://www.w3.org/2000/svg" width="48" height="48"><defs><clipPath id="a"><path data-name="Rectangle 457" transform="translate(-.391 -.391)" fill="#202832" d="M0 0h48v48H0z"/></clipPath></defs><g data-name="Group 1163"><g data-name="Group 1162"><g data-name="Group 1161" clip-path="url(#a)" fill="#202832" transform="translate(.391 .391)"><path data-name="Path 1559" d="M33.451 19.552a9.837 9.837 0 0 1 0-19.673h.006a9.837 9.837 0 0 1-.006 19.673zm-7.87-9.841a7.88 7.88 0 0 0 7.868 7.874 7.87 7.87 0 0 0 0-15.739 7.87 7.87 0 0 0-7.87 7.866zm0 0"/><path data-name="Path 1560" d="M46.234 23.495a.985.985 0 0 1-.7-.287l-6.524-6.532a.984.984 0 0 1 1.392-1.39l6.523 6.532a.982.982 0 0 1-.694 1.678zm0 0"/></g></g><path data-name="Path 1561" d="M34.821 47.609H5.31a4.925 4.925 0 0 1-4.919-4.918V5.31A4.925 4.925 0 0 1 5.31.391h13.771a.984.984 0 0 1 0 1.967H5.31a2.956 2.956 0 0 0-2.951 2.951v37.382a2.956 2.956 0 0 0 2.951 2.951h29.511a2.956 2.956 0 0 0 2.951-2.951v-11.8a.984.984 0 0 1 1.967 0v11.8a4.924 4.924 0 0 1-4.919 4.919zm0 0" fill="#202832"/><path data-name="Path 1562" d="M7.277 41.702a.984.984 0 0 1-.984-.984v-9.837a.984.984 0 0 1 .984-.984h2.951a3.935 3.935 0 0 1 0 7.87H8.261v2.951a.984.984 0 0 1-.984.984zm.984-5.9h1.967a1.968 1.968 0 0 0 0-3.935H8.261zm0 0" fill="#202832"/><path data-name="Path 1563" d="M21.049 41.702h-3.935a.984.984 0 0 1-.984-.984v-9.837a.984.984 0 0 1 .984-.984h3.935A2.956 2.956 0 0 1 24 32.848v5.9a2.956 2.956 0 0 1-2.951 2.951zm-2.951-1.967h2.951a.986.986 0 0 0 .984-.984v-5.9a.986.986 0 0 0-.984-.984h-2.951zm0 0" fill="#202832"/><path data-name="Path 1564" d="M26.951 41.702a.984.984 0 0 1-.984-.984v-7.87a2.956 2.956 0 0 1 2.951-2.951h3.935a.984.984 0 0 1 0 1.967h-3.935a.986.986 0 0 0-.984.984v7.87a.984.984 0 0 1-.984.984zm0 0" fill="#202832"/><path data-name="Path 1565" d="M32.853 37.771h-5.9a.984.984 0 0 1 0-1.967h5.9a.984.984 0 0 1 0 1.967zm0 0" fill="#202832"/></g></svg>