<svg xmlns="http://www.w3.org/2000/svg" width="95.968" height="95.969"><g data-name="Group 1143"><path data-name="Path 1518" d="M95.969 1.116a1.115 1.115 0 0 0-1.116-1.118 54.779 54.779 0 0 0-38.888 16.108l-8.44 8.441H33.481a1.118 1.118 0 0 0-.789.327l-18.97 18.97a1.116 1.116 0 0 0 .789 1.905h15.886a34.336 34.336 0 0 0-1.257 3.878l-6.491 6.492a1.116 1.116 0 0 0 0 1.578l2.585 2.584a30.858 30.858 0 0 0-7.18 12.874l-1.272 4.66a1.117 1.117 0 0 0 1.371 1.371l4.663-1.272a30.866 30.866 0 0 0 12.872-7.18l2.584 2.584a1.116 1.116 0 0 0 1.578 0l6.493-6.493a34.044 34.044 0 0 0 3.877-1.255v15.886a1.116 1.116 0 0 0 1.905.79l18.97-18.97a1.118 1.118 0 0 0 .327-.789V48.444l8.441-8.44A54.8 54.8 0 0 0 95.971 1.116zm-6.211 20.108L74.746 6.212a52.456 52.456 0 0 1 18.979-3.967 52.456 52.456 0 0 1-3.967 18.979zm-58.4 22.3H17.206l16.737-16.738h11.35l-7.21 7.21a34.886 34.886 0 0 0-6.724 9.526zm2.761 25.648a28.651 28.651 0 0 1-11.892 6.595l-2.779.757.758-2.779A28.659 28.659 0 0 1 26.8 61.853zm4.94 1.785L25.015 56.913l5.118-5.117 14.043 14.043zm30.128-8.927L52.449 78.768 50.248 64.61a34.885 34.885 0 0 0 9.526-6.724l7.21-7.21zm.327-14.833-9.115 9.116-.031.029a32.375 32.375 0 0 1-14.278 8.256c-8.982-8.98-4.891-4.891-14.718-14.718a32.4 32.4 0 0 1 8.26-14.282l.028-.029 9.115-9.115 8.767-8.767a52.8 52.8 0 0 1 15-10.522l16.262 16.262a52.8 52.8 0 0 1-10.522 15zm0 0"/><path data-name="Path 1519" d="M66.961 21.201a7.811 7.811 0 1 0 7.81 7.81 7.811 7.811 0 0 0-7.81-7.81zm0 13.39a5.579 5.579 0 1 1 5.579-5.58 5.579 5.579 0 0 1-5.579 5.58zm0 0"/><g data-name="Group 1329" fill="#007ce1"><path data-name="Path 1520" d="m6.374 61.045 10.038-10.043a1.116 1.116 0 0 0-1.577-1.578L4.792 59.467a1.116 1.116 0 0 0 1.577 1.578zm0 0"/><path data-name="Path 1521" d="m6.374 75.551 11.158-11.158a1.116 1.116 0 0 0-1.577-1.578L4.796 73.974a1.116 1.116 0 0 0 1.577 1.577zm0 0"/><path data-name="Path 1522" d="M44.966 79.553 34.923 89.595a1.116 1.116 0 0 0 1.578 1.578L46.544 81.13a1.116 1.116 0 1 0-1.578-1.577zm0 0"/></g><path data-name="Path 1523" d="M31.576 78.437 20.418 89.595a1.116 1.116 0 0 0 1.577 1.578l11.159-11.159a1.116 1.116 0 1 0-1.578-1.577zm0 0" fill="#1971b9"/><path data-name="Path 1524" d="M13.722 80.668.332 94.058a1.116 1.116 0 0 0 1.578 1.578l13.39-13.39a1.116 1.116 0 1 0-1.578-1.578zm0 0" fill="#007ce1"/><path data-name="Path 1525" d="M57.24 37.149 42.734 51.656a1.116 1.116 0 0 0 1.577 1.578l14.507-14.506a1.116 1.116 0 0 0-1.578-1.578zm0 0"/></g></svg>