<svg xmlns="http://www.w3.org/2000/svg" width="36.567" height="48.384"><g data-name="Group 1179"><g data-name="Group 1165" fill="#1a1f23"><path data-name="Path 1574" d="M29.568 43.008H5.376A5.376 5.376 0 0 1 0 37.632V9.408a1.346 1.346 0 0 1 .394-.95L8.458.394A1.342 1.342 0 0 1 9.408 0h20.16a5.375 5.375 0 0 1 5.376 5.376v32.256a5.375 5.375 0 0 1-5.376 5.376zM2.688 9.964v27.668a2.689 2.689 0 0 0 2.688 2.688h24.192a2.688 2.688 0 0 0 2.688-2.688V5.376a2.688 2.688 0 0 0-2.688-2.688h-19.6zm0 0"/><path data-name="Path 1575" d="M10.752 17.472a1.344 1.344 0 1 1-1.344-1.344 1.344 1.344 0 0 1 1.344 1.344zm0 0"/><path data-name="Path 1576" d="M10.752 24.192a1.344 1.344 0 1 1-1.344-1.344 1.344 1.344 0 0 1 1.344 1.344zm0 0"/><path data-name="Path 1577" d="M10.752 30.912a1.344 1.344 0 1 1-1.344-1.344 1.344 1.344 0 0 1 1.344 1.344zm0 0"/><path data-name="Path 1578" d="M25.534 18.816h-10.75a1.344 1.344 0 0 1 0-2.688h10.75a1.344 1.344 0 0 1 0 2.688zm0 0"/><path data-name="Path 1579" d="M25.534 25.536h-10.75a1.344 1.344 0 0 1 0-2.688h10.75a1.344 1.344 0 0 1 0 2.688zm0 0"/><path data-name="Path 1580" d="M25.534 32.256h-10.75a1.344 1.344 0 0 1 0-2.688h10.75a1.344 1.344 0 0 1 0 2.688zm0 0"/></g><g data-name="Group 1167"><g data-name="Group 1166"><path data-name="Rectangle 460" fill="#fff" d="M15.735 36.96h20.16v10.752h-20.16z"/><path data-name="Path 1581" d="M36.568 48.388h-21.5v-12.1h21.5zm-20.16-1.344h18.816v-9.408l-18.816-12.1z" fill="#1a1f23"/></g><path data-name="Rectangle 461" fill="#1a1f23" d="M19.26 39.407h2.688v5.376H19.26z"/><path data-name="Rectangle 462" fill="#1a1f23" d="M23.522 42.095h1.344v2.688h-1.344z"/><path data-name="Rectangle 463" fill="#1a1f23" d="M27.112 42.095h1.344v2.688h-1.344z"/><path data-name="Rectangle 464" fill="#1a1f23" d="M30.701 42.095h1.344v2.688h-1.344z"/></g></g></svg>