<svg version="1.0" xmlns="http://www.w3.org/2000/svg" width="682.667" height="682.667" viewBox="0 0 512 512"><path d="M7.8 2.1C5.5 3.3 3.2 5.6 2 8c-1.9 3.7-2 5.8-2 37s.1 33.3 2 37c2.3 4.5 8 8 13 8s10.7-3.5 13-8c1.8-3.6 2-5.8 2-28V30h24c22.2 0 24.4-.2 28-2 4.5-2.3 8-8 8-13S86.5 4.3 82 2C78.3.1 76.2 0 44.8 0c-31.2.1-33.5.2-37 2.1zM429.8 2.1c-4.3 2.2-7.8 8.1-7.8 12.9 0 5 3.5 10.7 8 13 3.6 1.8 5.8 2 28 2h24v24c0 22.2.2 24.4 2 28 2.3 4.5 8 8 13 8s10.7-3.5 13-8c1.9-3.7 2-5.8 2-37s-.1-33.3-2-37c-1.3-2.6-3.4-4.7-6-6-3.7-1.9-5.8-2-37.2-2-31.2.1-33.5.2-37 2.1zM232 122.5c-15.1 1.7-21.7 2.9-38.5 7.2C132.8 145.1 70.1 182.1 14.7 235c-19.5 18.6-19.6 23.3-.7 41.3 67.7 65 146 105.5 219 113.2 17.1 1.9 28.9 1.9 46.2 0 67.3-7.1 138.4-41.6 202.8-98.4 14.9-13.2 26.1-24.5 28.1-28.3 4.2-8.1 1.9-13.7-10.8-25.8-84.5-81.5-183.2-123.8-267.3-114.5zm48 31.3c19.8 5.2 36.5 14.6 50.1 28.1 13.5 13.5 22.6 29.7 28.2 50.1 2.9 10.9 2.9 37.1 0 48-5.6 20.4-14.7 36.6-28.2 50.1s-29.7 22.6-50.1 28.2c-11 3-37.1 2.9-48.3-.1-39.9-10.9-67-38.1-77.9-78.2-3.2-11.5-3.1-36.2.1-48.4 10.9-42 44.8-73 86.6-79.6 9.3-1.4 30.8-.4 39.5 1.8zm-138 29.9c-13.9 23.1-21 47.7-21 72.3 0 23.6 7.7 51.1 19.4 69.4 2 3.1 3.6 5.8 3.6 6.1 0 1.8-25.8-12.6-43.5-24.2-20.5-13.5-50.8-37.5-60.9-48.2l-3-3.1 3-3.1c9.5-10.1 38.9-33.5 58.4-46.6 14.2-9.4 43.4-26.3 45.7-26.3.3 0-.5 1.7-1.7 3.7zm242.9 4.9c29.3 16.3 60.5 38.9 83.1 60.2l7.5 7-3 3.2c-9.2 9.9-39.5 34-58.5 46.7-17.3 11.4-44.6 27-45.6 26-.3-.3 1.1-3.1 3.2-6.2 7.4-11.6 14.7-31.1 17.6-47 1.7-9.2 1.6-36-.1-45.5-2.7-15.3-10.1-34.8-17.5-46.4-2-3.1-3.6-5.9-3.6-6.2 0-1 2.8.3 16.9 8.2z"/><path d="M242 192.6c-18 3.8-35.7 17.7-43.9 34.4-9.4 19.3-9.4 38.7 0 58 5.9 11.9 17 23 28.9 28.9 19.3 9.4 38.7 9.4 58 0 16.9-8.3 30.7-26 34.5-44.4 3.1-14.6 1.2-28.5-5.6-42.5-8.3-16.9-26-30.7-44.4-34.5-8.6-1.8-18.9-1.8-27.5.1zm29.4 32.3c7.5 3.7 12.8 9.1 16.5 17 2.2 4.7 2.6 7 2.6 14.1 0 7.6-.4 9.3-3.3 15.2-3.8 7.7-9.2 13-17.1 16.7-4.7 2.2-7 2.6-14.1 2.6s-9.4-.4-14-2.6c-8.2-3.9-13.5-9-17.2-16.7-2.9-5.9-3.3-7.6-3.3-15.2 0-7.1.4-9.4 2.6-14 8.7-18.6 29.3-26 47.3-17.1zM7.8 424.1c-2.3 1.2-4.6 3.5-5.8 5.9-1.9 3.7-2 5.8-2 37s.1 33.3 2 37c1.3 2.6 3.4 4.7 6 6 3.7 1.9 5.8 2 37 2s33.3-.1 37-2c4.5-2.3 8-8 8-13s-3.5-10.7-8-13c-3.6-1.8-5.8-2-28-2H30v-24c0-22.2-.2-24.4-2-28-3.7-7.3-12.7-9.9-20.2-5.9zM489.8 424.1c-2.3 1.2-4.6 3.5-5.8 5.9-1.8 3.6-2 5.8-2 28v24h-24c-22.2 0-24.4.2-28 2-4.5 2.3-8 8-8 13s3.5 10.7 8 13c3.7 1.9 5.8 2 37 2s33.3-.1 37-2c2.6-1.3 4.7-3.4 6-6 1.9-3.7 2-5.8 2-37s-.1-33.3-2-37c-3.7-7.3-12.7-9.9-20.2-5.9z"/></svg>