<svg version="1.0" xmlns="http://www.w3.org/2000/svg" width="682.667" height="682.667" viewBox="0 0 512 512"><path d="M155.5 1.4c-8.4 2.1-14.7 5.7-21.1 12.1-6.5 6.5-10.5 13.6-12.3 22.3-.8 3.7-1.1 35.8-1.1 106v100.8l-9.6 1.8c-27.5 5.1-50.8 17.6-70.9 38-16.3 16.4-25.4 31.2-32.4 52.1-13.3 40-7.4 82.7 16.4 118.5 2.7 4.1 9.9 12.5 16 18.6 19.4 19.6 39.7 30.9 68 37.7l9 2.1 175.5.4c128.6.2 177.1 0 181.5-.8 8.1-1.6 18.5-7.2 23.9-13 5.3-5.6 9.9-14.4 11.5-21.8.8-3.8 1.1-55.6 1.1-184.8 0-162.4-.2-179.8-1.6-182.7-2.2-4.4-102-104.4-106.6-106.8-3.6-1.8-7-1.9-123-1.8-91.9.1-120.4.4-124.3 1.3zM381 74c0 42.2.1 44.2 2 48 1.3 2.6 3.4 4.7 6 6 3.8 1.9 5.8 2 48 2h44v170c0 168.5 0 170.1-2 174-1.3 2.6-3.4 4.7-6 6-3.9 2-5.6 2-127.7 2H221.5l10.1-10.3c19.6-19.8 32-43.3 37-70.1l1.8-9.6h79.3c77.6 0 79.5 0 83.3-2 4.5-2.3 8-8 8-13s-3.5-10.7-8-13c-3.8-2-5.7-2-83.3-2h-79.5l-.6-4.8c-2.1-14.2-8.8-33.6-16.2-46.4-2.4-4.2-4.4-8-4.4-8.3 0-.3 40.5-.5 90-.5 88.3 0 90.2 0 94-2 4.5-2.3 8-8 8-13s-3.5-10.7-8-13c-3.9-2-5.7-2-108-2H220.9l-5.2-3.8c-16.8-12.5-39.8-22-59.9-24.8l-4.8-.6V142.1c.1-113.1-.5-104.8 7.6-109.7l3.9-2.4H381v44zm54.5 2 24 24H411V76c0-13.2.1-24 .3-24 .1 0 11 10.8 24.2 24zM160 274.8c19.8 5.2 36.5 14.6 50.1 28.1 13.5 13.5 22.6 29.7 28.2 50.1 1.6 6.2 2 10.4 2 24 0 18-1 23.5-7.2 39.5-9.4 24.3-33.3 48.2-57.6 57.6-16 6.2-21.5 7.2-39.5 7.2s-23.5-1-39.5-7.2c-24.3-9.4-48.2-33.3-57.6-57.6-6.1-15.8-7.2-21.6-7.3-39-.1-17.9 1.6-26.7 7.9-41.6 13.7-32.5 45.8-57.4 81-62.9 9.4-1.4 30.8-.4 39.5 1.8z"/><path d="M198.8 184.1c-4.3 2.2-7.8 8.1-7.8 12.9 0 5 3.5 10.7 8 13 3.9 2 5.6 2 117 2s113.1 0 117-2c4.5-2.3 8-8 8-13s-3.5-10.7-8-13c-3.9-2-5.6-2-117.2-2-110.8.1-113.4.1-117 2.1zM178.5 336.6c-1.6.9-16.6 15.2-33.2 31.7L115 398.5l-10.2-10.2c-5.7-5.5-11.7-10.8-13.5-11.7-12.2-6.1-25.8 7.5-19.7 19.7 2.2 4.4 32.1 34.4 36.6 36.8 4.5 2.3 8.8 2.4 13.1.3 4.4-2.2 74.4-72 76.8-76.6 2.4-4.8 2.4-8.9-.1-13.8-3.5-6.9-12.7-9.9-19.5-6.4z"/></svg>