<svg xmlns="http://www.w3.org/2000/svg" width="789.581" height="752.325"><g data-name="Group 2436a"><g data-name="Group 2398"><path data-name="Path 3690" d="m789.174 82.794-96.286-53.215 25.965-23.24L789.3 58.126l.005-1-70.237-51.634a.4.4 0 0 0-.509.024l-26.631 23.842a.4.4 0 0 0-.131.345.4.4 0 0 0 .2.308l97.167 53.7z" fill="#c4c4c4"/><g data-name="triangle36"><path data-name="Path 3691" d="M788.799 155.604 693.681 30.939l95.487 52.773.005-.917-96.782-53.491a.4.4 0 0 0-.5.088.4.4 0 0 0-.016.509l96.924 127.025z" fill="#c4c4c4"/></g><g data-name="triangle36"><path data-name="Path 3692" d="m396.229 750.757 129.527-58.4 12.695 59.128h.825l-12.837-59.79a.4.4 0 0 0-.558-.282l-131.593 59.333z" fill="#c4c4c4"/></g><g data-name="triangle36"><path data-name="Path 3693" d="m785.896 725.169-84.973 27.142 2.609.013 82.359-26.308z" fill="#c4c4c4"/></g><g data-name="triangle36"><path data-name="Path 3694" d="m789.305 57.128-69.3-50.947 69.572-2.309.005-.807-70.766 2.349a.408.408 0 0 0-.373.283.4.4 0 0 0 .148.445l70.71 51.983z" fill="#c4c4c4"/></g><g data-name="triangle36"><path data-name="Path 3695" d="m787.819 347.37-93.785-5.529 75.773-45.947 18.2 14.172.005-1.017-17.924-13.965a.4.4 0 0 0-.457-.026l-77.118 46.762a.4.4 0 0 0 .185.747l95.121 5.608z" fill="#c4c4c4"/></g><g data-name="triangle36"><path data-name="Path 3696" d="m91.856 749.203 15.449-26.348 3.113 26.442.813.005-3.266-27.734a.4.4 0 0 0-.318-.347.406.406 0 0 0-.431.191l-16.293 27.791z" fill="#c4c4c4"/></g><g data-name="triangle36" fill="#c4c4c4"><path data-name="Path 3697" d="m785.896 725.169-84.973 27.143 2.608.013 82.36-26.308z"/><path data-name="Path 3698" d="m785.919 720.785-89.088-22.13a.41.41 0 0 0-.488.294L682.86 752.22h.832l13.334-52.687 88.888 22.08z"/></g><g data-name="triangle36"><path data-name="Path 3699" d="m786.86 536.221-48.672 27.934-36.759-9.822 85.505-32.741.005-.866-86.961 33.3a.4.4 0 0 0 .04.766l38.122 10.185a.425.425 0 0 0 .1.014.4.4 0 0 0 .2-.053l48.409-27.782z" fill="#c4c4c4"/></g><g data-name="triangle36"><path data-name="Path 3700" d="m539.275 751.486-12.684-59.082 49.166 17.443-21.24 41.716.9.005 21.263-41.764a.4.4 0 0 0 .016-.333.41.41 0 0 0-.239-.23l-50.279-17.838a.4.4 0 0 0-.529.464l12.8 59.616z" fill="#c4c4c4"/></g><g data-name="triangle36"><path data-name="Path 3701" d="m555.42 751.569 20.94-41.132 26.052 41.372.955.005-26.7-42.408a.376.376 0 0 0-.361-.187.4.4 0 0 0-.34.22l-21.446 42.125z" fill="#c4c4c4"/></g><g data-name="triangle36"><path data-name="Path 3702" d="m602.412 751.81.955.005-25.97-41.245 88.759 41.565 1.922.01-91.584-42.888a.4.4 0 0 0-.514.579z" fill="#c4c4c4"/></g><g data-name="triangle36"><path data-name="Path 3703" d="m576.152 709.987 90 42.147 1.924.01-90.227-42.252L696.2 699.498l-13.344 52.722h.832l13.433-53.077a.409.409 0 0 0-.084-.361.416.416 0 0 0-.342-.139l-120.406 10.578a.4.4 0 0 0-.137.766z" fill="#c4c4c4"/></g><g data-name="triangle36"><path data-name="Path 3704" d="m111.231 749.302-3.166-26.882 41.872 27.082 1.5.007-43.65-28.229a.4.4 0 0 0-.431-.005.4.4 0 0 0-.187.39l3.256 27.635z" fill="#c4c4c4"/></g><g data-name="triangle36"><path data-name="Path 3705" d="M378.682 477.635a.414.414 0 0 1-.2-.053.406.406 0 0 1-.192-.268l-4.139-20a.4.4 0 0 1 .069-.318.4.4 0 0 1 .28-.163l102.387-11.868a.39.39 0 0 1 .442.314.4.4 0 0 1-.271.469l-98.25 31.868a.39.39 0 0 1-.126.019zm-3.653-20.055 3.958 19.13 93.967-30.478z" fill="#c4c4c4"/></g><g data-name="triangle36"><path data-name="Path 3706" d="m54.002 749.011 5.281-57.718 47.734 30.454-16.095 27.451.931.005 16.055-27.384a.4.4 0 0 0-.131-.543l-48.621-31.019a.414.414 0 0 0-.4-.022.407.407 0 0 0-.223.326l-5.347 58.444z" fill="#c4c4c4"/></g><g data-name="triangle36"><path data-name="Path 3707" d="M107.562 722.019a.4.4 0 0 1-.215-.064l-48.621-31.018a.4.4 0 0 1-.015-.67l83.009-58.321a.4.4 0 0 1 .608.474l-34.393 89.344a.411.411 0 0 1-.251.239.453.453 0 0 1-.122.016zM59.668 690.58l47.7 30.43 33.732-87.646z" fill="#c4c4c4"/></g><g data-name="triangle36"><path data-name="Path 3708" d="M254.946 724.364h-.005l-147.385-2.345a.4.4 0 0 1-.369-.546l34.388-89.34a.4.4 0 0 1 .631-.168l113 91.69a.4.4 0 0 1-.256.715zm-146.8-3.147 145.64 2.323-111.657-90.602z" fill="#c4c4c4"/></g><g data-name="triangle36"><path data-name="Path 3709" d="m149.936 749.503 1.5.007-42.468-27.466 144.46 2.3-46.197 25.449 1.656.009 46.255-25.482a.4.4 0 0 0-.187-.756l-147.384-2.35h-.005a.4.4 0 0 0-.222.74z" fill="#c4c4c4"/></g><g data-name="triangle36"><path data-name="Path 3710" d="m208.887 749.801 44.918-24.745-15.294 24.9h.943l15.837-25.778a.407.407 0 0 0-.052-.49.4.4 0 0 0-.486-.076l-47.523 26.18z" fill="#c4c4c4"/></g><g data-name="triangle36"><path data-name="Path 3711" d="m239.453 749.956 15.675-25.516 89.258 26.052 2.929.016-92.254-26.923a.4.4 0 0 0-.457.175l-16.093 26.2z" fill="#c4c4c4"/></g><g data-name="triangle36"><path data-name="Path 3712" d="M647.309 514.172a.366.366 0 0 1-.148-.029l-170.377-68.4a.4.4 0 0 1-.107-.685l86.255-71.097a.388.388 0 0 1 .326-.086.4.4 0 0 1 .277.189l84.121 139.5a.406.406 0 0 1-.038.471.4.4 0 0 1-.309.137zm-169.593-68.93 168.628 67.7-83.259-138.062z" fill="#c4c4c4"/></g><g data-name="triangle36"><path data-name="Path 3713" d="M647.308 514.173a.4.4 0 0 1-.344-.194l-84.121-139.5a.408.408 0 0 1-.039-.328.4.4 0 0 1 .22-.247l70.679-31.609a.4.4 0 0 1 .369.021.4.4 0 0 1 .2.314l13.44 171.108a.4.4 0 0 1-.278.416.4.4 0 0 1-.126.019zM563.77 374.454l83 137.646-13.259-168.835z" fill="#c4c4c4"/></g><g data-name="triangle36"><path data-name="Path 3714" d="M647.309 514.173h-.034a.4.4 0 0 1-.366-.369l-13.443-171.107a.405.405 0 0 1 .1-.306.413.413 0 0 1 .294-.131l58.855-.5a.564.564 0 0 1 .321.156.4.4 0 0 1 .072.349L647.7 513.872a.4.4 0 0 1-.391.301zm-13.006-171.11 13.219 168.315 44.671-168.8z" fill="#c4c4c4"/></g><g data-name="triangle36"><path data-name="Path 3715" d="m786.939 520.725-86.75 33.219-51.837-39.881 138.7-14.863v-.811l-139.785 14.98a.405.405 0 0 0-.345.292.4.4 0 0 0 .143.428l52.813 40.632a.4.4 0 0 0 .39.057l86.667-33.186z" fill="#c4c4c4"/></g><g data-name="triangle36"><path data-name="Path 3716" d="M633.866 343.068a.408.408 0 0 1-.373-.253.4.4 0 0 1 .094-.442l58.609-56.048a.4.4 0 0 1 .436-.081.408.408 0 0 1 .246.369l.246 55.55a.4.4 0 0 1-.4.4l-58.855.5zm58.211-55.512-57.2 54.7 57.436-.488z" fill="#c4c4c4"/></g><g data-name="triangle36"><path data-name="Path 3717" d="m788.374 239.751-95.5 46.222-.274-255.12 96.2 126.073v-1.322L692.517 29.413a.4.4 0 0 0-.45-.136.4.4 0 0 0-.273.381l.28 256.958a.4.4 0 0 0 .187.342.414.414 0 0 0 .213.062.4.4 0 0 0 .177-.041l95.717-46.329z" fill="#c4c4c4"/></g><g data-name="triangle36"><path data-name="Path 3718" d="M692.717 342.568a.4.4 0 0 1-.4-.4l-.246-55.55a.4.4 0 0 1 .132-.3.413.413 0 0 1 .316-.1l77.367 8.78a.4.4 0 0 1 .163.746l-77.118 46.762a.385.385 0 0 1-.214.062zm.161-55.5.241 54.383 75.5-45.781z" fill="#c4c4c4"/></g><g data-name="triangle36"><path data-name="Path 3719" d="m788.204 272.949-18.532 22.03-75.766-8.606 94.463-45.722.005-.9-96.073 46.5a.4.4 0 0 0 .13.763l77.364 8.786h.045a.4.4 0 0 0 .309-.144l18.048-21.446z" fill="#c4c4c4"/></g><g data-name="triangle36"><path data-name="Path 3720" d="m788.05 304.004-17.567-8.735 17.718-21.06.007-1.261-18.677 22.195a.4.4 0 0 0-.086.342.413.413 0 0 0 .215.28l18.38 9.138z" fill="#c4c4c4"/></g><g data-name="triangle36"><path data-name="Path 3721" d="m788.019 309.047-14.763-11.5 14.784 7.352.005-.9-18.026-8.963a.401.401 0 0 0-.426.68l18.421 14.342z" fill="#c4c4c4"/></g><g data-name="triangle36"><path data-name="Path 3722" d="m254.834 724.353 89.553 26.138 2.928.016-91.285-26.648 161.924-83.352-39.12 110.159.854.005 39.366-110.853a.4.4 0 0 0-.113-.44.408.408 0 0 0-.45-.055l-163.729 84.284a.4.4 0 0 0 .072.746z" fill="#c4c4c4"/></g><g data-name="triangle36"><path data-name="Path 3723" d="m379.694 750.672 39.216-110.429 106.185 51.526-130.806 58.977 1.941.01 129.982-58.606a.4.4 0 0 0 .01-.73l-107.366-52.1a.415.415 0 0 0-.33-.01.4.4 0 0 0-.225.237l-39.462 111.12z" fill="#c4c4c4"/></g><g data-name="triangle36"><path data-name="Path 3724" d="M425.689 513.043a.409.409 0 0 1-.24-.081l-47.008-35.407a.4.4 0 0 1 .38-.7l74.622 27.155a.4.4 0 0 1-.024.765l-27.612 8.252a.385.385 0 0 1-.118.016zm-44.607-34.507 44.688 33.66 26.252-7.845z" fill="#c4c4c4"/></g><g data-name="triangle36"><path data-name="Path 3725" d="M453.302 504.79a.42.42 0 0 1-.136-.024l-74.62-27.155a.4.4 0 0 1-.266-.385.4.4 0 0 1 .28-.376l98.25-31.868a.4.4 0 0 1 .5.533l-23.63 59.023a.4.4 0 0 1-.378.252zm-73.379-27.537 73.153 26.623 23.164-57.862z" fill="#c4c4c4"/></g><g data-name="triangle36"><path data-name="Path 3726" d="M418.678 640.086a.335.335 0 0 1-.058-.005.4.4 0 0 1-.342-.421l7.007-127.047a.4.4 0 0 1 .287-.364l27.612-8.25a.4.4 0 0 1 .4.094.41.41 0 0 1 .112.392l-34.625 135.297a.4.4 0 0 1-.393.304zm7.4-127.142-6.767 122.655 33.426-130.621z" fill="#c4c4c4"/></g><g data-name="triangle36"><path data-name="Path 3727" d="M647.308 514.173h-.017l-194.007-9.382a.4.4 0 0 1-.32-.186.4.4 0 0 1-.034-.368l23.626-59.021a.4.4 0 0 1 .524-.225l170.376 68.406a.4.4 0 0 1-.151.777zm-193.419-10.16 191.048 9.24-167.781-67.363z" fill="#c4c4c4"/></g><g data-name="triangle36"><path data-name="Path 3728" d="M476.931 445.767a.387.387 0 0 1-.146-.027.4.4 0 0 1-.251-.323l-19.891-153.958a.4.4 0 0 1 .646-.368l106.148 82.863a.4.4 0 0 1 .009.629l-86.254 71.093a.405.405 0 0 1-.261.091zM457.567 292.33l19.673 152.26 85.3-70.309z" fill="#c4c4c4"/></g><g data-name="triangle36"><path data-name="Path 3729" d="M563.187 374.676a.407.407 0 0 1-.246-.086l-106.147-82.864a.4.4 0 0 1-.153-.366.407.407 0 0 1 .235-.32l92.467-41.487a.4.4 0 0 1 .565.323l13.681 124.352a.4.4 0 0 1-.2.4.409.409 0 0 1-.202.048zm-105.369-83.174 104.868 81.865-13.518-122.852z" fill="#c4c4c4"/></g><g data-name="triangle36"><path data-name="Path 3730" d="M549.506 250.324a.3.3 0 0 1-.067-.007.4.4 0 0 1-.323-.3L504.983 66.763a.409.409 0 0 1 .053-.313.4.4 0 0 1 .261-.177l186.822-37.01a.406.406 0 0 1 .412.168.4.4 0 0 1 .005.445L549.847 250.14a.4.4 0 0 1-.341.184zm-43.64-183.343 43.814 181.932L691.34 30.239z" fill="#c4c4c4"/></g><g data-name="triangle36"><path data-name="Path 3731" d="M563.187 374.676a.432.432 0 0 1-.2-.053.405.405 0 0 1-.2-.306l-13.679-124.356a.4.4 0 0 1 .7-.316l84.356 92.747a.4.4 0 0 1-.134.639l-70.676 31.609a.4.4 0 0 1-.167.036zm-13.143-123.567 13.485 122.569 69.665-31.155z" fill="#c4c4c4"/></g><g data-name="triangle36"><path data-name="Path 3732" d="M633.864 343.068h-.012a.412.412 0 0 1-.285-.132l-84.356-92.744a.4.4 0 0 1 .4-.661l142.967 36.7a.4.4 0 0 1 .289.289.4.4 0 0 1-.11.393l-58.609 56.046a.4.4 0 0 1-.284.109zm-83.151-92.421 83.176 91.439 57.785-55.261z" fill="#c4c4c4"/></g><g data-name="triangle36"><path data-name="Path 3733" d="M692.475 287.02a.475.475 0 0 1-.1-.012l-142.967-36.7a.4.4 0 0 1-.239-.61L691.86 29.438a.4.4 0 0 1 .452-.167.4.4 0 0 1 .289.387l.28 256.958a.4.4 0 0 1-.156.32.411.411 0 0 1-.25.084zm-142.323-37.35 141.921 36.426-.277-255.075z" fill="#c4c4c4"/></g><g data-name="triangle36"><path data-name="Path 3734" d="M418.678 640.087a.409.409 0 0 1-.292-.129.4.4 0 0 1-.1-.375l34.624-135.294a.4.4 0 0 1 .249-.278.406.406 0 0 1 .371.045l146.881 101.458a.4.4 0 0 1-.155.728l-181.5 33.84a.531.531 0 0 1-.078.005zm34.873-135.038-34.324 134.122 179.929-33.547z" fill="#c4c4c4"/></g><g data-name="triangle36"><path data-name="Path 3735" d="M526.043 692.185a.389.389 0 0 1-.174-.039l-107.366-52.1a.4.4 0 0 1 .1-.759l181.5-33.84a.407.407 0 0 1 .424.2.4.4 0 0 1-.046.464l-74.135 85.94a.4.4 0 0 1-.303.134zm-106.086-52.33 105.984 51.43 73.184-84.835z" fill="#c4c4c4"/></g><g data-name="triangle36"><path data-name="Path 3736" d="M600.181 606.246a.412.412 0 0 1-.227-.072L453.075 504.72a.405.405 0 0 1-.153-.462.42.42 0 0 1 .4-.273l194.005 9.382a.4.4 0 0 1 .34.588l-47.128 92.072a.408.408 0 0 1-.261.208.482.482 0 0 1-.097.011zM454.695 504.859 600.033 605.25l46.633-91.108z" fill="#c4c4c4"/></g><g data-name="triangle36"><path data-name="Path 3737" d="M576.321 710.025a.369.369 0 0 1-.134-.024l-50.277-17.839a.4.4 0 0 1-.17-.643l74.135-85.94a.4.4 0 0 1 .7.352l-23.859 103.786a.407.407 0 0 1-.2.263.414.414 0 0 1-.195.045zm-49.586-18.426 49.3 17.491 23.393-101.753z" fill="#c4c4c4"/></g><g data-name="triangle36"><path data-name="Path 3738" d="M576.323 710.024a.4.4 0 0 1-.3-.139.407.407 0 0 1-.089-.354l23.858-103.78a.4.4 0 0 1 .278-.3.411.411 0 0 1 .4.1l96.551 93.206a.4.4 0 0 1 .1.423.406.406 0 0 1-.345.268l-120.417 10.575zm24.094-103.4L576.842 709.17l118.976-10.447z" fill="#c4c4c4"/></g><g data-name="triangle36"><path data-name="Path 3739" d="M600.181 606.246a.4.4 0 0 1-.357-.588l47.128-92.072a.4.4 0 0 1 .6-.136l52.813 40.63a.4.4 0 0 1-.06.679l-99.94 51.442a.428.428 0 0 1-.184.045zm47.267-91.86-46.336 90.524 98.262-50.575z" fill="#c4c4c4"/></g><g data-name="triangle36"><path data-name="Path 3740" d="M696.731 699.451a.4.4 0 0 1-.278-.113l-96.551-93.2a.4.4 0 0 1 .165-.677l138.062-41.255a.4.4 0 0 1 .5.505l-41.51 134.461a.4.4 0 0 1-.285.27.423.423 0 0 1-.103.009zm-95.772-93.419 95.584 92.271 41.094-133.114z" fill="#c4c4c4"/></g><g data-name="triangle36"><path data-name="Path 3741" d="M600.181 606.246a.4.4 0 0 1-.184-.763l99.942-51.44a.4.4 0 0 1 .289-.031l38.122 10.185a.4.4 0 0 1 .01.775l-138.062 41.257a.392.392 0 0 1-.117.017zm99.988-51.416-95.937 49.387 132.533-39.6z" fill="#c4c4c4"/></g><g data-name="triangle36"><path data-name="Path 3742" d="M3.971 657.55a.4.4 0 0 1-.2-.751l114.333-66.952a.424.424 0 0 1 .309-.041.4.4 0 0 1 .246.192l23.645 42.08a.4.4 0 0 1 .012.369.408.408 0 0 1-.292.225L4.043 657.542a.344.344 0 0 1-.072.008zm114.186-66.8L6.135 656.35l135.188-24.373z" fill="#c4c4c4"/></g><g data-name="triangle36"><path data-name="Path 3743" d="M141.946 632.678h-.036a.4.4 0 0 1-.313-.2l-23.641-42.086a.4.4 0 0 1-.015-.366.408.408 0 0 1 .289-.227l70.589-14.026a.4.4 0 0 1 .387.655l-46.944 56.108a.4.4 0 0 1-.316.142zm-23.018-42.2 23.085 41.085 45.836-54.782z" fill="#c4c4c4"/></g><g data-name="triangle36"><path data-name="Path 3744" d="M341.694 349.168a.406.406 0 0 1-.388-.505l22.173-85.406a.403.403 0 0 1 .78.2l-22.173 85.406a.407.407 0 0 1-.392.305z" fill="#c4c4c4"/></g><g data-name="triangle36"><path data-name="Path 3745" d="M341.694 349.169a.4.4 0 0 1-.388-.505l22.173-85.406a.407.407 0 0 1 .192-.249.4.4 0 0 1 .314-.034l93.173 28.049a.4.4 0 0 1 .062.747l-115.346 57.355a.4.4 0 0 1-.18.043zm22.46-85.3-21.844 84.142 113.643-56.51z" fill="#c4c4c4"/></g><g data-name="triangle36"><path data-name="Path 3746" d="M374.543 457.635a.406.406 0 0 1-.385-.287L341.31 348.882a.4.4 0 0 1 .62-.445l135.238 96.6a.4.4 0 0 1-.187.728l-102.39 11.866a.457.457 0 0 1-.048.004zm-32.119-107.852 32.409 107.008 101.014-11.705z" fill="#c4c4c4"/></g><g data-name="triangle36"><path data-name="Path 3747" d="M476.932 445.767a.392.392 0 0 1-.232-.074l-135.238-96.6a.4.4 0 0 1-.168-.359.4.4 0 0 1 .222-.33l115.347-57.356a.4.4 0 0 1 .369 0 .41.41 0 0 1 .21.306l19.891 153.956a.4.4 0 0 1-.4.454zm-134.456-96.941L476.41 444.5l-19.7-152.479z" fill="#c4c4c4"/></g><g data-name="triangle36"><path data-name="Path 3748" d="M304.168 533.605a.4.4 0 0 1-.294-.677l70.375-75.969a.4.4 0 0 1 .4-.115.4.4 0 0 1 .287.308l4.139 20a.4.4 0 0 1-.153.4l-74.513 55.967a.407.407 0 0 1-.241.086zm70.141-75.524-66.8 72.106 70.725-53.12z" fill="#c4c4c4"/></g><g data-name="triangle36"><path data-name="Path 3749" d="M304.168 533.603a.406.406 0 0 1-.369-.244.4.4 0 0 1 .129-.481l74.513-55.967a.407.407 0 0 1 .484 0l47.007 35.407a.4.4 0 0 1-.175.72l-121.52 20.559a.323.323 0 0 1-.069.006zm74.515-55.864-72.945 54.787 118.963-20.127z" fill="#c4c4c4"/></g><g data-name="triangle36"><path data-name="Path 3750" d="M418.677 640.088a.408.408 0 0 1-.271-.108L303.895 533.495a.4.4 0 0 1-.112-.411.407.407 0 0 1 .32-.282l121.523-20.559a.4.4 0 0 1 .469.419l-7.01 127.044a.4.4 0 0 1-.253.352.4.4 0 0 1-.155.03zM305.042 533.463l113.284 105.339 6.936-125.68z" fill="#c4c4c4"/></g><g data-name="triangle36"><path data-name="Path 3751" d="m787.427 425.101-139.465 87.783 45.033-170.17 94.645 39.987.005-.873-94.765-40.035a.407.407 0 0 0-.335.01.4.4 0 0 0-.211.259L646.92 513.668a.405.405 0 0 0 .151.428.406.406 0 0 0 .454.015l139.9-88.055z" fill="#c4c4c4"/></g><g data-name="triangle36"><path data-name="Path 3752" d="m787.052 498.389-138.053 14.794 138.423-87.125.005-.957-140.332 88.328a.4.4 0 0 0 .213.744.408.408 0 0 0 .045 0l139.7-14.971z" fill="#c4c4c4"/></g><g data-name="triangle36"><path data-name="Path 3753" d="m787.648 381.829-92.611-39.123 92.783 5.47v-.807l-95.077-5.6a.38.38 0 0 0-.417.309.405.405 0 0 0 .235.464l95.078 40.164z" fill="#c4c4c4"/></g><g data-name="triangle36"><path data-name="Path 3754" d="M141.951 632.678a.4.4 0 0 1-.323-.165.4.4 0 0 1 .015-.5l46.944-56.108a.409.409 0 0 1 .309-.143l92.786-.326a.4.4 0 0 1 .149.777l-139.727 56.436a.366.366 0 0 1-.153.029zm47.135-56.106-45.789 54.727 136.3-55.044z" fill="#c4c4c4"/></g><g data-name="triangle36"><path data-name="Path 3755" d="M254.945 724.369a.4.4 0 0 1-.253-.089l-113-91.69a.4.4 0 0 1 .1-.687l139.736-56.433a.409.409 0 0 1 .405.062.4.4 0 0 1 .143.383l-26.732 148.123a.4.4 0 0 1-.4.332zm-112.208-91.975 111.934 90.83 26.485-146.731z" fill="#c4c4c4"/></g><g data-name="triangle36"><path data-name="Path 3756" d="M188.895 576.572a.4.4 0 0 1-.139-.782l115.274-42.97a.4.4 0 0 1 .5.567l-22.486 42.644a.4.4 0 0 1-.356.215l-92.786.326zm114.425-42.626-112.166 41.809 90.287-.316z" fill="#c4c4c4"/></g><g data-name="triangle36"><path data-name="Path 3757" d="M254.947 724.369a.386.386 0 0 1-.237-.079.4.4 0 0 1-.158-.4l26.736-148.123a.4.4 0 0 1 .211-.285.4.4 0 0 1 .356-.009l137 63.839a.4.4 0 0 1 .014.725l-163.735 84.288a.385.385 0 0 1-.187.044zm27.042-147.939-26.5 146.8 162.274-83.531z" fill="#c4c4c4"/></g><g data-name="triangle36"><path data-name="Path 3758" d="M418.678 640.088a.453.453 0 0 1-.168-.038l-137-63.841a.4.4 0 0 1-.211-.235.4.4 0 0 1 .024-.318l22.486-42.644a.405.405 0 0 1 .632-.108l114.514 106.484a.4.4 0 0 1-.277.7zm-136.439-64.432 134.3 62.582L304.28 533.856z" fill="#c4c4c4"/></g><g data-name="triangle36"><path data-name="Path 3759" d="m786.625 582.177-47.433-17.668 47.664-27.355.005-.933-48.816 28.016a.4.4 0 0 0 .06.728l48.516 18.07z" fill="#c4c4c4"/></g><g data-name="triangle36"><path data-name="Path 3760" d="M363.868 263.764a.4.4 0 0 1-.222-.739l93.1-62.265a.403.403 0 0 1 .448.67l-93.1 62.265a.4.4 0 0 1-.226.069z" fill="#c4c4c4"/></g><g data-name="triangle36"><path data-name="Path 3761" d="M457.04 291.811a.374.374 0 0 1-.115-.017l-93.172-28.049a.4.4 0 0 1-.108-.722l93.1-62.265a.4.4 0 0 1 .627.335l.07 90.314a.4.4 0 0 1-.405.4zm-92.237-28.592 91.835 27.647-.069-89.019z" fill="#c4c4c4"/></g><g data-name="triangle36"><path data-name="Path 3762" d="M457.04 291.811a.4.4 0 0 1-.216-.065.4.4 0 0 1-.186-.337l-.069-90.316a.4.4 0 0 1 .591-.356l92.537 48.827a.4.4 0 0 1-.024.723l-92.467 41.489a.4.4 0 0 1-.166.035zm.335-90.048.069 89.022 91.145-40.894z" fill="#c4c4c4"/></g><g data-name="triangle36"><path data-name="Path 3763" d="M549.507 250.325a.408.408 0 0 1-.187-.046l-92.531-48.827a.4.4 0 0 1-.192-.493l48.4-134.427a.391.391 0 0 1 .4-.265.4.4 0 0 1 .371.308l44.131 183.252a.4.4 0 0 1-.144.414.415.415 0 0 1-.248.084zm-92.037-49.423 91.438 48.246L505.3 68.072z" fill="#c4c4c4"/></g><g data-name="triangle36"><path data-name="Path 3764" d="m786.338 638.074-88.883 60 40.946-132.626 47.994 61.752.007-1.306-47.839-61.554a.4.4 0 0 0-.7.127l-41.516 134.461a.406.406 0 0 0 .146.443.4.4 0 0 0 .237.079.413.413 0 0 0 .229-.069l89.374-60.336z" fill="#c4c4c4"/></g><g data-name="triangle36"><path data-name="Path 3765" d="m785.919 720.787-88.208-21.912 88.624-59.829.005-.976-89.831 60.643a.4.4 0 0 0 .129.725l89.276 22.178z" fill="#c4c4c4"/></g><g data-name="triangle36"><path data-name="Path 3766" d="m786.403 625.894-46.968-60.434 47.186 17.576v-.859l-48.236-17.967a.4.4 0 0 0-.459.624l48.469 62.367z" fill="#c4c4c4"/></g></g><g data-name="Group 2435"><g data-name="Group 2399"><path data-name="Path 3767" d="M718.849 1.613a4.2 4.2 0 0 0-4.225 4.182 4.2 4.2 0 0 0 4.182 4.226 4.2 4.2 0 0 0 4.226-4.183 4.2 4.2 0 0 0-4.183-4.225z" fill="#fff"/><path data-name="Path 3768" d="M718.849 1.613a4.2 4.2 0 0 1 4.183 4.225 4.2 4.2 0 0 1-4.226 4.183 4.2 4.2 0 0 1-4.182-4.226 4.2 4.2 0 0 1 4.225-4.182M718.858 0a5.825 5.825 0 0 0-5.847 5.786 5.823 5.823 0 0 0 5.786 5.846 5.821 5.821 0 0 0 5.846-5.786 5.823 5.823 0 0 0-5.786-5.847z" fill="#1971b9"/></g><g data-name="Group 2400"><path data-name="Path 3769" d="M58.956 688.003a2.594 2.594 0 1 0 2.581 2.608 2.594 2.594 0 0 0-2.581-2.608z" fill="#fff"/><path data-name="Path 3770" d="M58.956 688.003a2.594 2.594 0 1 1-2.608 2.581 2.6 2.6 0 0 1 2.608-2.581m.007-1.613a4.207 4.207 0 1 0 4.185 4.228 4.212 4.212 0 0 0-4.185-4.228z" fill="#1971b9"/></g><g data-name="Group 2401"><path data-name="Path 3771" d="M107.582 718.025a3.592 3.592 0 1 0 3.572 3.61 3.592 3.592 0 0 0-3.572-3.61z" fill="#fff"/><path data-name="Path 3772" d="M107.582 718.025a3.592 3.592 0 1 1-3.611 3.574 3.591 3.591 0 0 1 3.611-3.574m.007-1.612a5.2 5.2 0 1 0 5.178 5.23 5.208 5.208 0 0 0-5.178-5.23z" fill="#1971b9"/></g><g data-name="Group 2402"><path data-name="Path 3773" d="M769.856 292.287a3.116 3.116 0 1 0 3.1 3.132 3.116 3.116 0 0 0-3.1-3.132z" fill="#fff"/><path data-name="Path 3774" d="M769.856 292.287a3.116 3.116 0 1 1-3.132 3.1 3.116 3.116 0 0 1 3.132-3.1m.009-1.613a4.728 4.728 0 1 0 4.7 4.752 4.733 4.733 0 0 0-4.7-4.752z" fill="#1971b9"/></g><g data-name="Group 2403" transform="translate(556.236 367.32)"><circle data-name="Ellipse 123" cx="5.341" cy="5.341" r="5.341" transform="translate(1.612 1.612)" fill="#fff"/><path data-name="Path 3775" d="M6.98 1.613a5.341 5.341 0 1 1-5.369 5.312A5.34 5.34 0 0 1 6.98 1.613M6.989 0a6.953 6.953 0 1 0 6.917 6.989A6.96 6.96 0 0 0 6.989 0z" fill="#1971b9"/></g><g data-name="Group 2404"><path data-name="Path 3776" d="M636.155 342.676a2.287 2.287 0 1 0-2.3 2.275 2.285 2.285 0 0 0 2.3-2.275z" fill="#fff"/><path data-name="Path 3777" d="M633.88 340.377a2.287 2.287 0 1 1-2.3 2.275 2.285 2.285 0 0 1 2.3-2.275m.007-1.613a3.9 3.9 0 1 0 3.881 3.919 3.9 3.9 0 0 0-3.881-3.919z" fill="#1971b9"/></g><g data-name="Group 2405"><path data-name="Path 3778" d="M692.447 291.879a5.262 5.262 0 1 0-5.235-5.29 5.264 5.264 0 0 0 5.235 5.29z" fill="#fff"/><path data-name="Path 3779" d="M692.502 281.354a5.262 5.262 0 1 1-5.292 5.239 5.264 5.264 0 0 1 5.29-5.235m.007-1.613a6.875 6.875 0 1 0 6.84 6.91 6.885 6.885 0 0 0-6.84-6.91z" fill="#1971b9"/></g><g data-name="Group 2406"><path data-name="Path 3780" d="M695.482 29.676a3.285 3.285 0 0 0-3.269-3.3 3.287 3.287 0 0 0-3.3 3.269 3.287 3.287 0 0 0 3.271 3.3 3.286 3.286 0 0 0 3.298-3.269z" fill="#fff"/><path data-name="Path 3781" d="M692.212 26.372a3.287 3.287 0 0 1 3.271 3.3 3.289 3.289 0 0 1-3.3 3.269 3.287 3.287 0 0 1-3.271-3.3 3.287 3.287 0 0 1 3.3-3.269m.009-1.613a4.905 4.905 0 0 0-4.924 4.874 4.906 4.906 0 0 0 4.874 4.926 4.906 4.906 0 0 0 4.924-4.876 4.905 4.905 0 0 0-4.874-4.924z" fill="#1971b9"/></g><g data-name="Group 2407"><path data-name="Path 3782" d="M453.327 499.634a4.755 4.755 0 1 0 4.732 4.78 4.754 4.754 0 0 0-4.732-4.78z" fill="#fff"/><path data-name="Path 3783" d="M453.327 499.634a4.755 4.755 0 1 1-4.778 4.73 4.756 4.756 0 0 1 4.778-4.73m.009-1.612a6.367 6.367 0 1 0 6.334 6.4 6.374 6.374 0 0 0-6.334-6.4z" fill="#1971b9"/></g><g data-name="Group 2408"><path data-name="Path 3784" d="M526.065 687.696a4.085 4.085 0 1 0 4.063 4.106 4.085 4.085 0 0 0-4.063-4.106z" fill="#fff"/><path data-name="Path 3785" d="M526.066 687.698a4.085 4.085 0 1 1-4.1 4.063 4.085 4.085 0 0 1 4.1-4.063m.009-1.612a5.7 5.7 0 1 0 5.668 5.725 5.7 5.7 0 0 0-5.668-5.725z" fill="#1971b9"/></g><g data-name="Group 2409"><path data-name="Path 3786" d="M576.351 704.326a5.3 5.3 0 1 0 5.268 5.323 5.3 5.3 0 0 0-5.268-5.323z" fill="#fff"/><path data-name="Path 3787" d="M576.352 704.326a5.3 5.3 0 1 1-5.324 5.269 5.3 5.3 0 0 1 5.324-5.269m.007-1.613a6.909 6.909 0 1 0 6.874 6.944 6.917 6.917 0 0 0-6.874-6.944z" fill="#1971b9"/></g><g data-name="Group 2410"><path data-name="Path 3788" d="M600.198 602.878a2.965 2.965 0 1 0 2.948 2.979 2.966 2.966 0 0 0-2.948-2.979z" fill="#fff"/><path data-name="Path 3789" d="M600.198 602.878a2.965 2.965 0 1 1-2.981 2.95 2.964 2.964 0 0 1 2.981-2.95m.007-1.612a4.577 4.577 0 1 0 4.555 4.6 4.58 4.58 0 0 0-4.555-4.6z" fill="#1971b9"/></g><g data-name="Group 2411"><path data-name="Path 3790" d="M700.152 548.662a5.738 5.738 0 1 0 5.709 5.767 5.739 5.739 0 0 0-5.709-5.767z" fill="#fff"/><path data-name="Path 3791" d="M700.152 548.662a5.738 5.738 0 1 1-5.768 5.709 5.738 5.738 0 0 1 5.768-5.709m.009-1.613a7.352 7.352 0 1 0 7.314 7.389 7.36 7.36 0 0 0-7.314-7.389z" fill="#1971b9"/></g><g data-name="Group 2412"><path data-name="Path 3792" d="M3.985 654.788a2.36 2.36 0 1 0 2.349 2.373 2.36 2.36 0 0 0-2.349-2.373z" fill="#fff"/><path data-name="Path 3793" d="M3.984 654.788a2.36 2.36 0 1 1-2.373 2.349 2.36 2.36 0 0 1 2.373-2.349m.009-1.613a3.973 3.973 0 1 0 3.953 3.995 3.978 3.978 0 0 0-3.953-3.995z" fill="#1971b9"/></g><g data-name="Group 2413"><path data-name="Path 3794" d="M118.326 586.379a3.817 3.817 0 1 0 3.8 3.836 3.815 3.815 0 0 0-3.8-3.836z" fill="#fff"/><path data-name="Path 3795" d="M118.327 586.376a3.817 3.817 0 1 1-3.836 3.8 3.818 3.818 0 0 1 3.836-3.8m.009-1.613a5.43 5.43 0 1 0 5.4 5.458 5.437 5.437 0 0 0-5.4-5.458z" fill="#1971b9"/></g><g data-name="Group 2414"><path data-name="Path 3796" d="M341.708 346.461a2.3 2.3 0 1 0 2.292 2.316 2.306 2.306 0 0 0-2.292-2.316z" fill="#fff"/><path data-name="Path 3797" d="M341.707 346.461a2.3 2.3 0 1 1-2.318 2.294 2.3 2.3 0 0 1 2.318-2.294m.007-1.613a3.917 3.917 0 1 0 3.9 3.938 3.922 3.922 0 0 0-3.9-3.938z" fill="#1971b9"/></g><g data-name="Group 2415"><path data-name="Path 3798" d="M476.96 440.111a5.253 5.253 0 1 0 5.226 5.28 5.254 5.254 0 0 0-5.226-5.28z" fill="#fff"/><path data-name="Path 3799" d="M476.96 440.111a5.253 5.253 0 1 1-5.28 5.226 5.251 5.251 0 0 1 5.28-5.226m.009-1.613a6.866 6.866 0 1 0 6.831 6.9 6.874 6.874 0 0 0-6.831-6.9z" fill="#1971b9"/></g><g data-name="Group 2416"><path data-name="Path 3800" d="M374.531 459.852a2.621 2.621 0 1 0-2.608-2.635 2.622 2.622 0 0 0 2.608 2.635z" fill="#fff"/><path data-name="Path 3801" d="M374.556 454.61a2.621 2.621 0 1 1-2.634 2.606 2.62 2.62 0 0 1 2.634-2.606m.009-1.613a4.233 4.233 0 1 0 4.213 4.256 4.237 4.237 0 0 0-4.213-4.256z" fill="#1971b9"/></g><g data-name="Group 2417"><path data-name="Path 3802" d="M378.699 474.27a2.963 2.963 0 1 0 2.946 2.977 2.964 2.964 0 0 0-2.946-2.977z" fill="#fff"/><path data-name="Path 3803" d="M378.699 474.27a2.963 2.963 0 1 1-2.974 2.951 2.962 2.962 0 0 1 2.977-2.948m.009-1.612a4.574 4.574 0 1 0 4.551 4.6 4.58 4.58 0 0 0-4.551-4.6z" fill="#1971b9"/></g><g data-name="Group 2418"><path data-name="Path 3804" d="M425.702 510.321a2.319 2.319 0 1 0 2.307 2.33 2.319 2.319 0 0 0-2.307-2.33z" fill="#fff"/><path data-name="Path 3805" d="M425.702 510.321a2.319 2.319 0 1 1-2.331 2.306 2.318 2.318 0 0 1 2.331-2.306m.009-1.613a3.931 3.931 0 1 0 3.91 3.952 3.936 3.936 0 0 0-3.91-3.952z" fill="#1971b9"/></g><g data-name="Group 2419"><path data-name="Path 3806" d="M647.331 509.739a4.031 4.031 0 1 0 4.01 4.053 4.033 4.033 0 0 0-4.01-4.053z" fill="#fff"/><path data-name="Path 3807" d="M647.33 509.739a4.031 4.031 0 1 1-4.053 4.012 4.031 4.031 0 0 1 4.053-4.012m.009-1.612a5.644 5.644 0 1 0 5.615 5.671 5.648 5.648 0 0 0-5.615-5.671z" fill="#1971b9"/></g><g data-name="Group 2420"><path data-name="Path 3808" d="M692.746 337.531a4.634 4.634 0 1 0 4.611 4.658 4.636 4.636 0 0 0-4.611-4.658z" fill="#fff"/><path data-name="Path 3809" d="M692.745 337.531a4.634 4.634 0 1 1-4.658 4.611 4.634 4.634 0 0 1 4.658-4.611m.009-1.612a6.246 6.246 0 1 0 6.216 6.278 6.251 6.251 0 0 0-6.216-6.278z" fill="#1971b9"/></g><g data-name="Group 2421"><path data-name="Path 3810" d="M141.978 627.251a5.025 5.025 0 1 0 5 5.051 5.026 5.026 0 0 0-5-5.051z" fill="#fff"/><path data-name="Path 3811" d="M141.978 627.251a5.025 5.025 0 1 1-5.051 5 5.025 5.025 0 0 1 5.051-5m.009-1.613a6.639 6.639 0 1 0 6.6 6.673 6.645 6.645 0 0 0-6.6-6.673z" fill="#1971b9"/></g><g data-name="Group 2422"><path data-name="Path 3812" d="M191.79 576.185a2.894 2.894 0 1 0-2.909 2.879 2.9 2.9 0 0 0 2.909-2.879z" fill="#fff"/><path data-name="Path 3813" d="M188.911 573.276a2.894 2.894 0 1 1-2.909 2.879 2.9 2.9 0 0 1 2.909-2.879m.009-1.612a4.506 4.506 0 1 0 4.482 4.529 4.511 4.511 0 0 0-4.482-4.529z" fill="#1971b9"/></g><g data-name="Group 2423"><path data-name="Path 3814" d="M254.97 719.42a4.547 4.547 0 1 0 4.524 4.57 4.549 4.549 0 0 0-4.524-4.57z" fill="#fff"/><path data-name="Path 3815" d="M254.97 719.42a4.547 4.547 0 1 1-4.57 4.524 4.547 4.547 0 0 1 4.57-4.524m.009-1.612a6.159 6.159 0 1 0 6.128 6.19 6.166 6.166 0 0 0-6.128-6.19z" fill="#1971b9"/></g><g data-name="Group 2424"><path data-name="Path 3816" d="M281.71 571.089a4.755 4.755 0 1 0 4.73 4.78 4.756 4.756 0 0 0-4.73-4.78z" fill="#fff"/><path data-name="Path 3817" d="M281.708 571.086a4.755 4.755 0 1 1-4.78 4.732 4.756 4.756 0 0 1 4.78-4.732m.009-1.612a6.367 6.367 0 1 0 6.333 6.4 6.372 6.372 0 0 0-6.333-6.4z" fill="#1971b9"/></g><g data-name="Group 2425"><path data-name="Path 3818" d="M418.701 635.535a4.147 4.147 0 1 0 4.125 4.168 4.146 4.146 0 0 0-4.125-4.168z" fill="#fff"/><path data-name="Path 3819" d="M418.701 635.535a4.147 4.147 0 1 1-4.17 4.127 4.146 4.146 0 0 1 4.17-4.127m.009-1.613a5.76 5.76 0 1 0 5.73 5.79 5.767 5.767 0 0 0-5.73-5.79z" fill="#1971b9"/></g><g data-name="Group 2426"><path data-name="Path 3820" d="M304.185 530.152a3.044 3.044 0 1 0 3.029 3.06 3.045 3.045 0 0 0-3.029-3.06z" fill="#fff"/><path data-name="Path 3821" d="M304.185 530.156a3.044 3.044 0 1 1-3.06 3.027 3.043 3.043 0 0 1 3.06-3.027m.009-1.613a4.657 4.657 0 1 0 4.632 4.68 4.662 4.662 0 0 0-4.632-4.68z" fill="#1971b9"/></g><g data-name="Group 2427"><path data-name="Path 3822" d="M363.886 259.718a3.641 3.641 0 1 0 3.623 3.659 3.641 3.641 0 0 0-3.623-3.659z" fill="#fff"/><path data-name="Path 3823" d="M363.887 259.718a3.641 3.641 0 1 1-3.659 3.623 3.642 3.642 0 0 1 3.659-3.623m.009-1.613a5.254 5.254 0 1 0 5.226 5.281 5.263 5.263 0 0 0-5.226-5.281z" fill="#1971b9"/></g><g data-name="Group 2428"><path data-name="Path 3824" d="M457.056 288.704a2.705 2.705 0 1 0 2.69 2.72 2.7 2.7 0 0 0-2.69-2.72z" fill="#fff"/><path data-name="Path 3825" d="M457.055 288.704a2.705 2.705 0 1 1-2.718 2.692 2.706 2.706 0 0 1 2.718-2.692m.009-1.612a4.318 4.318 0 1 0 4.3 4.338 4.322 4.322 0 0 0-4.3-4.338z" fill="#1971b9"/></g><g data-name="Group 2429"><path data-name="Path 3826" d="M466.755 50.185a4.3 4.3 0 0 0-4.319 4.276 4.3 4.3 0 0 0 4.276 4.321 4.3 4.3 0 0 0 4.319-4.276 4.3 4.3 0 0 0-4.276-4.321z" fill="#fff"/><path data-name="Path 3827" d="M466.755 50.185a4.3 4.3 0 0 1 4.276 4.321 4.3 4.3 0 0 1-4.319 4.276 4.3 4.3 0 0 1-4.276-4.321 4.3 4.3 0 0 1 4.319-4.276m.012-1.607a5.918 5.918 0 0 0-5.941 5.881 5.918 5.918 0 0 0 5.881 5.941 5.919 5.919 0 0 0 5.941-5.881 5.918 5.918 0 0 0-5.881-5.941z" fill="#1971b9"/></g><g data-name="Group 2430"><path data-name="Path 3828" d="M456.942 206.916a5.822 5.822 0 1 0-5.792-5.852 5.82 5.82 0 0 0 5.792 5.852z" fill="#fff"/><path data-name="Path 3829" d="M457.002 195.273a5.822 5.822 0 1 1-5.852 5.792 5.82 5.82 0 0 1 5.852-5.792m.009-1.613a7.435 7.435 0 1 0 7.4 7.472 7.444 7.444 0 0 0-7.4-7.472z" fill="#1971b9"/></g><g data-name="Group 2431"><path data-name="Path 3830" d="M549.524 246.95a2.971 2.971 0 1 0 2.955 2.986 2.972 2.972 0 0 0-2.955-2.986z" fill="#fff"/><path data-name="Path 3831" d="M549.523 246.95a2.971 2.971 0 1 1-2.988 2.955 2.969 2.969 0 0 1 2.988-2.955m.007-1.613a4.584 4.584 0 1 0 4.561 4.608 4.587 4.587 0 0 0-4.561-4.608z" fill="#1971b9"/></g><g data-name="Group 2432"><path data-name="Path 3832" d="M505.392 63.365a3.3 3.3 0 0 0-3.319 3.287 3.3 3.3 0 0 0 3.287 3.321 3.3 3.3 0 0 0 3.319-3.287 3.3 3.3 0 0 0-3.287-3.321z" fill="#fff"/><path data-name="Path 3833" d="M505.392 63.365a3.3 3.3 0 0 1 3.287 3.321 3.3 3.3 0 0 1-3.319 3.287 3.3 3.3 0 0 1-3.287-3.321 3.3 3.3 0 0 1 3.319-3.287m.009-1.612a4.921 4.921 0 0 0-4.941 4.891 4.923 4.923 0 0 0 4.891 4.941 4.921 4.921 0 0 0 4.941-4.891 4.921 4.921 0 0 0-4.891-4.941z" fill="#1971b9"/></g><g data-name="Group 2433"><path data-name="Path 3834" d="M696.75 695.961a3.087 3.087 0 1 0 3.07 3.1 3.086 3.086 0 0 0-3.07-3.1z" fill="#fff"/><path data-name="Path 3835" d="M696.75 695.961a3.087 3.087 0 1 1-3.1 3.07 3.087 3.087 0 0 1 3.1-3.07m.007-1.613a4.7 4.7 0 1 0 4.677 4.723 4.7 4.7 0 0 0-4.677-4.723z" fill="#1971b9"/></g><g data-name="Group 2434" transform="translate(732.791 559.133)"><circle data-name="Ellipse 124" cx="3.842" cy="3.842" r="3.842" transform="translate(1.612 1.613)" fill="#fff"/><path data-name="Path 3836" d="M5.474 1.613a3.842 3.842 0 1 1-3.862 3.821 3.841 3.841 0 0 1 3.862-3.821M5.482 0a5.454 5.454 0 1 0 5.426 5.482A5.46 5.46 0 0 0 5.482 0z" fill="#1971b9"/></g></g></g></svg>