<svg xmlns="http://www.w3.org/2000/svg" width="61" height="48"><g data-name="Group 13"><g data-name="Rectangle 28" fill="none" stroke="#000" stroke-width="2"><path stroke="none" d="M0 0h34v48H0z"/><path d="M1 1h32v46H1z"/></g><path data-name="Rectangle 29" d="M6 9h4v2H6z"/><path data-name="Rectangle 30" d="M13 9h14v2H13z"/><path data-name="Rectangle 31" d="M6 16h4v2H6z"/><path data-name="Rectangle 32" d="M13 16h14v2H13z"/><path data-name="Rectangle 33" d="M6 23h4v2H6z"/><path data-name="Rectangle 34" d="M13 23h14v2H13z"/><path data-name="Rectangle 35" d="M6 30h4v2H6z"/><path data-name="Rectangle 36" d="M13 30h14v2H13z"/><path data-name="Rectangle 37" d="M6 37h4v2H6z"/><path data-name="Rectangle 38" d="M13 37h14v2H13z"/><path data-name="Line 7" fill="none" stroke="#007ce1" stroke-width="2" d="m23.5 17 18 14.5"/><g data-name="Rectangle 39" fill="none" stroke="#007ce1" stroke-width="2"><path stroke="none" d="M41 26h20v12H41z"/><path d="M42 27h18v10H42z"/></g><path data-name="Rectangle 40" fill="#007ce1" d="M46 31h4v2h-4z"/><path data-name="Rectangle 41" fill="#007ce1" d="M53 31h4v2h-4z"/></g></svg>