<svg xmlns="http://www.w3.org/2000/svg" width="72" height="72"><g data-name="Group 3953"><path data-name="Path 6353" d="M9.686 42.372H5.325a31.37 31.37 0 0 0 24.3 24.3v-4.361A27.168 27.168 0 0 1 9.683 42.369zm0 0" fill="#202832"/><path data-name="Path 6354" d="M42.372 62.314v4.361a31.37 31.37 0 0 0 24.3-24.3h-4.361a27.168 27.168 0 0 1-19.942 19.942zm0 0" fill="#202832"/><path data-name="Path 6355" d="M62.314 29.628h4.361a31.37 31.37 0 0 0-24.3-24.3v4.361a27.168 27.168 0 0 1 19.942 19.942zm0 0" fill="#202832"/><path data-name="Path 6356" d="M29.628 9.686V5.325a31.37 31.37 0 0 0-24.3 24.3h4.361A27.168 27.168 0 0 1 29.631 9.683zm0 0" fill="#202832"/><path data-name="Path 6357" d="M33.876 11.481a2.124 2.124 0 0 0 4.248 0V2.124a2.124 2.124 0 0 0-4.248 0zm0 0" fill="#202832"/><path data-name="Path 6358" d="M11.481 38.124a2.124 2.124 0 0 0 0-4.248H2.124a2.124 2.124 0 0 0 0 4.248zm0 0" fill="#202832"/><path data-name="Path 6359" d="M38.124 60.519a2.124 2.124 0 0 0-4.248 0v9.357a2.124 2.124 0 0 0 4.248 0zm0 0" fill="#202832"/><path data-name="Path 6360" d="M69.876 33.876h-9.357a2.124 2.124 0 0 0 0 4.248h9.357a2.124 2.124 0 0 0 0-4.248zm0 0" fill="#202832"/><g data-name="Group 3954" fill="#007ce1"><path data-name="Path 6349" d="M38.124 25.558V23.2a2.124 2.124 0 0 0-4.248 0v2.355a10.7 10.7 0 0 1 4.248 0zm0 0"/><path data-name="Path 6350" d="M25.558 33.875H23.2a2.124 2.124 0 1 0 0 4.248h2.355a10.72 10.72 0 0 1 0-4.248zm0 0"/><path data-name="Path 6351" d="M33.875 46.442V48.8a2.124 2.124 0 1 0 4.248 0v-2.354a10.72 10.72 0 0 1-4.248 0zm0 0"/><path data-name="Path 6352" d="M48.8 33.877h-2.354a10.7 10.7 0 0 1 0 4.248H48.8a2.124 2.124 0 0 0 0-4.248zm0 0"/><path data-name="Path 6361" d="M42.407 36A6.407 6.407 0 1 0 36 42.407 6.414 6.414 0 0 0 42.407 36zM36 38.124A2.124 2.124 0 1 1 38.123 36 2.161 2.161 0 0 1 36 38.124zm0 0"/></g></g></svg>