<svg version="1.0" xmlns="http://www.w3.org/2000/svg" width="682.667" height="682.667" viewBox="0 0 512 512"><path d="M252.5 1.2c-4.4 2.5-4.4 3-4.5 34.4 0 28.5.1 30.1 2 32.1 1 1.2 2.9 2.4 4 2.8 3 1 7.5-1.2 8.9-4.1.7-1.7 1.1-12.1 1.1-31.5V5.8l-2.9-2.9c-3.1-3.1-5.4-3.5-8.6-1.7zM124.5 39.5c-2.8 2.8-3.1 5.4-1 9.4 3.5 6.8 28.9 45.8 31.1 47.8 5.1 4.6 12.4 1.2 12.4-5.6 0-3.2-2.4-7.6-14.5-26.7-8-12.6-15.7-23.9-17.1-25.2-3.3-2.9-7.8-2.9-10.9.3zM382.7 39.7c-2.3.6-35.7 50.6-35.7 53.4 0 2.6 5.2 7.9 7.7 7.9 1 0 2.9-.7 4.2-1.6 3.4-2.4 34.1-49 34.1-51.9 0-3.7-1-5.5-4.1-7-2.9-1.5-3.2-1.6-6.2-.8zM250 110.7c-18.7.9-35.4 5.5-53.4 14.6-26.1 13.3-46.4 34.2-59.2 61.2-16.8 35.4-16.4 77.5 1 113.2 6.5 13.3 13.2 22.8 25.1 35.3 5.7 6.1 11.7 13.4 13.3 16.3 6.4 11.1 10.1 26.6 10.9 45.7.6 12.2.8 13.6 2.9 15.7l2.3 2.3h126.8l2.3-2.5c2-2.2 2.4-3.6 2.7-12.2.7-20.5 4.8-38.9 11-49.5 1.6-2.6 7.7-10 13.7-16.5 12.7-13.8 19.1-22.9 25.7-36.7 10.5-22.1 14.7-47.2 11.9-70.6-1.8-14.8-7.3-32.9-13.6-45.3-3.3-6.3-12.3-19.3-18.2-26.1-21.5-24.7-54.5-41.8-85.2-44.1-4.1-.3-9.1-.7-11-.8-1.9-.2-6-.2-9 0zm23.7 16.8c23.8 3.9 44.4 14 61.7 30.5 14.6 13.9 24.2 29.1 30 47.3 4.5 14 5.7 21.9 5.7 36.6-.1 30.9-11.5 59.4-32.4 80.4-12.5 12.6-17.8 20.7-23.1 35.7-3.1 8.4-6.6 27.6-6.6 35.6v5.4H204.2l-.6-2.3c-.3-1.2-.6-4.3-.6-6.8 0-7.2-2.8-21.5-6.1-31.4-4.6-13.7-9.9-22.2-22.6-35.7-12.3-13.1-18.6-22.3-24.3-35.6-24.3-56.5-.2-122.1 54.8-149.1 12-5.9 21.8-8.8 38.2-11.4 6.1-1 22.3-.6 30.7.8z"/><path d="M252.5 145.1c-5.1 3.1-5.9 8.2-2 12.1 2.1 2.2 3.7 2.6 11.3 3.1 30.6 2.2 57.9 20.7 71.2 48.2 5.6 11.5 7.8 19.1 8.6 30.2.6 8.9 1.9 13 4.5 14.3 3.1 1.7 6.9 1.1 9.4-1.5 2.2-2.1 2.5-3.3 2.5-9 0-3.7-.9-11.3-2.1-16.8-7.6-37.9-36.9-68.8-74.1-78.2-11.8-2.9-26.4-4.1-29.3-2.4zM48.7 123.1c-5.8 1.6-7.7 8.7-3.4 12.6C49.6 139.6 96 164 99 164c6.1 0 9.4-8 5.3-12.8-1.7-1.9-45.4-26.2-50.5-28.1-1.3-.4-3.6-.4-5.1 0zM459 122.7c-4.3 1.7-49.8 26.7-51.4 28.3-4.7 4.6-1.1 13 5.3 13 2.9 0 49.9-24.7 53.9-28.3 2.8-2.6 3-7.9.2-10.7-1.1-1.1-2.4-2-2.9-2s-1.5-.2-2.3-.4c-.7-.3-2-.2-2.8.1zM199.9 424.9c-9.2 1.9-15.9 9.8-15.9 18.9 0 8.8 3.7 14.7 11.5 18.3 3.7 1.7 7.6 1.9 59.6 1.9 39 0 56.6-.3 59-1.1 16.9-5.7 18.8-28.4 3-36.1l-4.6-2.3-54.5-.2c-30 0-56.1.2-58.1.6zm110.9 16.3c1.8 1.8 1.4 4.6-.7 5.8-1.3.6-20.1 1-54.1 1s-52.8-.4-54.1-1c-1.8-1-2.6-5-1.2-6.3.3-.4 25-.7 54.8-.7 40.7 0 54.4.3 55.3 1.2zM214.5 472.9c-4.5 1.1-6.9 2.7-10.3 6.5-8.4 9.6-5.5 24.3 6 30l5.2 2.6h40.3c44 0 44.6-.1 50.6-5.8 4.3-4.1 6-8.1 6-14.2s-1.7-10.2-6-14.1c-5.9-5.5-4.8-5.4-48.3-5.6-22.3-.1-41.8.2-43.5.6zm81.6 17.3c1 1.8.8 2.4-1.1 4-2.1 1.7-4.9 1.8-38.4 1.8-19.8 0-37.1-.3-38.3-.6-2.7-.7-3.9-4-2.3-5.9 1.1-1.3 7.4-1.5 40.1-1.5h38.8l1.2 2.2z"/></svg>