<svg data-name="Group 2685" xmlns="http://www.w3.org/2000/svg" width="47.867" height="48"><defs><clipPath id="a"><path data-name="Rectangle 1849" fill="#007ce1" d="M0 0h47.867v48H0z"/></clipPath></defs><g data-name="Group 2682"><g data-name="Group 2681" clip-path="url(#a)"><path data-name="Path 4300" d="M47.149 19.151 42 18.636a.772.772 0 0 1-.664-.511 18.162 18.162 0 0 0-.991-2.389.771.771 0 0 1 .108-.834l3.27-4a.8.8 0 0 0-.053-1.07l-5.634-5.643a.8.8 0 0 0-1.07-.053l-4 3.272a.779.779 0 0 1-.834.107 18.112 18.112 0 0 0-2.389-.992.774.774 0 0 1-.511-.664L28.715.718A.8.8 0 0 0 27.922 0h-7.978a.8.8 0 0 0-.8.718l-.51 5.145a.776.776 0 0 1-.511.665 18.1 18.1 0 0 0-2.389.99.773.773 0 0 1-.834-.107l-4-3.27a.8.8 0 0 0-1.069.052L4.189 9.83a.8.8 0 0 0-.053 1.07l3.271 4a.773.773 0 0 1 .107.834 18.162 18.162 0 0 0-.991 2.389.772.772 0 0 1-.665.511l-5.141.515a.8.8 0 0 0-.717.796v7.978a.8.8 0 0 0 .717.793l5.145.514a.777.777 0 0 1 .665.511 18.106 18.106 0 0 0 .991 2.389.779.779 0 0 1-.107.835l-3.271 4a.8.8 0 0 0 .052 1.069l5.641 5.642a.8.8 0 0 0 1.071.052l4-3.27a.775.775 0 0 1 .834-.108 18.249 18.249 0 0 0 2.389.992.772.772 0 0 1 .511.665l.514 5.144a.8.8 0 0 0 .8.718h7.97a.8.8 0 0 0 .793-.718l.515-5.144a.774.774 0 0 1 .511-.665 18.249 18.249 0 0 0 2.389-.992.777.777 0 0 1 .834.108l4 3.27a.8.8 0 0 0 1.07-.052l5.641-5.642a.8.8 0 0 0 .053-1.069l-3.271-4a.773.773 0 0 1-.107-.834 18.176 18.176 0 0 0 .991-2.39.778.778 0 0 1 .665-.511l5.145-.514a.8.8 0 0 0 .714-.793v-7.978a.8.8 0 0 0-.718-.794m-.876 8.049-4.425.442a2.37 2.37 0 0 0-2.021 1.6 16.519 16.519 0 0 1-.9 2.18 2.369 2.369 0 0 0 .3 2.557l2.817 3.436-4.622 4.622-3.445-2.816a2.369 2.369 0 0 0-2.557-.3 16.764 16.764 0 0 1-2.18.9 2.373 2.373 0 0 0-1.6 2.021l-.438 4.429h-6.53l-.443-4.424a2.372 2.372 0 0 0-1.595-2.022 16.707 16.707 0 0 1-2.18-.9 2.373 2.373 0 0 0-2.558.3l-3.443 2.816-4.623-4.625 2.818-3.444a2.371 2.371 0 0 0 .3-2.558 16.662 16.662 0 0 1-.9-2.181 2.368 2.368 0 0 0-2.02-1.594L1.6 27.2v-6.529l4.426-.444a2.369 2.369 0 0 0 2.02-1.595 16.636 16.636 0 0 1 .9-2.179 2.372 2.372 0 0 0-.3-2.559l-2.818-3.443 4.623-4.622L13.9 8.645a2.371 2.371 0 0 0 2.558.3 16.518 16.518 0 0 1 2.18-.9 2.372 2.372 0 0 0 1.6-2.019l.428-4.426H27.2l.442 4.424a2.368 2.368 0 0 0 1.6 2.021 16.492 16.492 0 0 1 2.178.9 2.372 2.372 0 0 0 2.559-.3l3.436-2.816 4.622 4.622-2.816 3.449a2.371 2.371 0 0 0-.3 2.558 16.575 16.575 0 0 1 .9 2.18 2.369 2.369 0 0 0 2.02 1.6l4.426.438z" fill="#007ce1"/></g></g><g data-name="Group 2684"><g data-name="Group 2683" clip-path="url(#a)" fill="#007ce1"><path data-name="Path 4301" d="m15 17.232-1.277-.958a12.768 12.768 0 0 0 0 15.318L15 30.634a11.172 11.172 0 0 1 0-13.4"/><path data-name="Path 4302" d="m19.466 34.174-.638 1.462a12.8 12.8 0 0 0 10.211 0l-.639-1.462a11.256 11.256 0 0 1-8.936 0"/><path data-name="Path 4303" d="m34.145 16.274-1.277.958a11.172 11.172 0 0 1 0 13.4l1.277.958a12.768 12.768 0 0 0 0-15.318"/><path data-name="Rectangle 1850" d="M23.136 6.382h1.596v1.596h-1.596z"/><path data-name="Rectangle 1851" d="m10.957 12.087 1.128-1.128 1.128 1.128-1.128 1.128z"/><path data-name="Rectangle 1852" d="M6.382 23.136h1.596v1.596H6.382z"/><path data-name="Rectangle 1853" d="m10.953 35.777 1.128-1.128 1.128 1.128-1.128 1.128z"/><path data-name="Rectangle 1854" d="M23.136 39.89h1.596v1.595h-1.596z"/><path data-name="Rectangle 1855" d="m34.643 35.781 1.128-1.128L36.9 35.78l-1.129 1.128z"/><path data-name="Rectangle 1856" d="M39.89 23.136h1.595v1.596H39.89z"/><path data-name="Rectangle 1857" d="m34.646 12.089 1.129-1.128 1.128 1.129-1.129 1.128z"/><path data-name="Path 4304" d="M26.89 11.4a.794.794 0 0 0-.563-.234h-7.978a2.394 2.394 0 0 0-2.394 2.393v17.554a2.394 2.394 0 0 0 2.394 2.394h11.169a2.394 2.394 0 0 0 2.393-2.394v-14.36a.8.8 0 0 0-.234-.564zm.234 2.489 2.063 2.063h-1.265a.8.8 0 0 1-.8-.8zm2.394 18.019H18.349a.8.8 0 0 1-.8-.8V13.562a.8.8 0 0 1 .8-.8h7.18v2.393a2.393 2.393 0 0 0 2.393 2.393h2.393v13.565a.8.8 0 0 1-.8.8"/><path data-name="Rectangle 1858" d="M19.147 19.147h9.574v1.595h-9.574z"/><path data-name="Rectangle 1859" d="M19.147 22.338h9.574v1.596h-9.574z"/><path data-name="Rectangle 1860" d="M19.147 25.529h9.574v1.596h-9.574z"/><path data-name="Rectangle 1861" d="M19.147 28.721h9.574v1.595h-9.574z"/><path data-name="Rectangle 1862" d="M19.147 15.956h4.787v1.596h-4.787z"/></g></g></svg>