<svg xmlns="http://www.w3.org/2000/svg" width="36" height="36"><g data-name="Group 2574" fill="#007ce1"><path data-name="Path 4133" d="M33.374 30H2.624A2.628 2.628 0 0 1 0 27.376V8.626A2.628 2.628 0 0 1 2.624 6a1.171 1.171 0 0 1 1.178 1.126A1.082 1.082 0 0 1 2.73 8.25h-.106a.379.379 0 0 0-.374.376v18.75a.377.377 0 0 0 .374.374h30.75a.379.379 0 0 0 .376-.374V8.626a.381.381 0 0 0-.376-.376 1.171 1.171 0 0 1-1.176-1.124A1.082 1.082 0 0 1 33.27 6 2.653 2.653 0 0 1 36 8.626v18.75A2.628 2.628 0 0 1 33.374 30zm0 0"/><path data-name="Path 4134" d="M24.374 36h-12.75a1.125 1.125 0 0 1 0-2.25h12.75a1.125 1.125 0 1 1 0 2.25zm0 0"/><path data-name="Path 4135" d="M18 36a1.124 1.124 0 0 1-1.124-1.125v-6a1.124 1.124 0 1 1 2.248 0v6A1.124 1.124 0 0 1 18 35.999zm0 0"/><path data-name="Path 4136" d="M26.25 7.5A3.75 3.75 0 1 1 30 3.75a3.755 3.755 0 0 1-3.75 3.75zm0-5.25a1.5 1.5 0 1 0 1.5 1.5 1.5 1.5 0 0 0-1.5-1.5zm0 0"/><path data-name="Path 4137" d="M10.874 18h-2.25A2.628 2.628 0 0 1 6 15.376v-2.25A2.628 2.628 0 0 1 8.624 10.5h2.25a2.629 2.629 0 0 1 2.626 2.626v2.25A2.628 2.628 0 0 1 10.874 18zm-2.25-5.25a.375.375 0 0 0-.374.376v2.25a.375.375 0 0 0 .374.374h2.25a.375.375 0 0 0 .376-.374v-2.25a.376.376 0 0 0-.376-.376zm0 0"/><path data-name="Path 4138" d="M9.75 7.5a3.75 3.75 0 1 1 3.75-3.75A3.755 3.755 0 0 1 9.75 7.5zm0-5.25a1.5 1.5 0 1 0 1.5 1.5 1.5 1.5 0 0 0-1.5-1.5zm0 0"/><path data-name="Path 4139" d="M27.374 18h-2.25a2.628 2.628 0 0 1-2.624-2.624v-2.25a2.628 2.628 0 0 1 2.624-2.626h2.25A2.629 2.629 0 0 1 30 13.126v2.25A2.628 2.628 0 0 1 27.374 18zm-2.25-5.25a.375.375 0 0 0-.374.376v2.25a.375.375 0 0 0 .374.374h2.25a.375.375 0 0 0 .376-.374v-2.25a.376.376 0 0 0-.376-.376zm0 0"/><path data-name="Path 4140" d="M23.25 4.876h-10.5a1.125 1.125 0 1 1 0-2.25h10.5a1.125 1.125 0 0 1 0 2.25zm0 0"/><path data-name="Path 4141" d="M18 15.376a1.124 1.124 0 0 1-1.124-1.126V3.75a1.124 1.124 0 0 1 2.248 0v10.5A1.124 1.124 0 0 1 18 15.376zm0 0"/><path data-name="Path 4142" d="M23.25 15.376h-10.5a1.125 1.125 0 1 1 0-2.25h10.5a1.125 1.125 0 0 1 0 2.25zm0 0"/></g></svg>