<svg xmlns="http://www.w3.org/2000/svg" width="36" height="36"><defs><clipPath id="a"><path data-name="Rectangle 1732" transform="translate(582 582)" fill="#007ce1" d="M0 0h36v36H0z"/></clipPath></defs><g data-name="Group 2587"><g data-name="Group 2586"><g data-name="Group 2585" clip-path="url(#a)" fill="#007ce1" transform="translate(-582 -582)"><path data-name="Path 4145" d="M598.8 588.59a1.8 1.8 0 1 0 1.8 1.8 1.8 1.8 0 0 0-1.8-1.8zm0 2.4a.6.6 0 1 1 .6-.6.6.6 0 0 1-.6.6zm0 0"/><path data-name="Path 4146" d="M582.6 613.789h11.486a1.7 1.7 0 0 0 .5 2.314l2.679 1.785a.6.6 0 0 0 .333.1h10.2a.6.6 0 0 0 .6-.6v-3.6h7.2a.6.6 0 0 0 .6-.6v-6h1.2a.6.6 0 0 0 .587-.73l-1.242-5.585a7.259 7.259 0 0 0-14.344 1.575v4.852a1.775 1.775 0 0 0-1.8.352 1.8 1.8 0 0 0-3 1.339v4.941l-1.187-.712a1.7 1.7 0 0 0-.613-.223v-2.206a.6.6 0 0 0-.6-.6H594a.6.6 0 0 1 0-1.2h1.2a.6.6 0 0 0 .6-.6v-1.2h1.2a.6.6 0 0 0 .586-.73l-1.241-5.585c-.022-.1-.051-.19-.076-.285h4.931v-1.2h-5.361a7.263 7.263 0 0 0-.7-1.2h.66a1.8 1.8 0 0 0 0-3.6h-.6v-1.2a.6.6 0 0 0-.6-.6h-1.053l1.08-4.855a6.06 6.06 0 0 1 11.974 1.314v4.739h1.2v-4.739a7.26 7.26 0 0 0-14.345-1.575l-1.241 5.585a.6.6 0 0 0 .586.729h1.2v1.2a.6.6 0 0 0 .6.6h1.2a.6.6 0 1 1 0 1.2h-1.2a.589.589 0 0 0-.381.147A7.268 7.268 0 0 0 582 602.449v10.74a.6.6 0 0 0 .6.6zm27.06-17.4a6.024 6.024 0 0 1 5.914 4.744l1.078 4.856H615.6a.6.6 0 0 0-.6.6v1.8h-2.4v1.2h2.4v3h-6.6v-3.6a1.8 1.8 0 0 0-3-1.34 1.775 1.775 0 0 0-1.8-.352v-4.848a6.066 6.066 0 0 1 6.06-6.06zM597.891 615.5a.6.6 0 0 0 .909-.514v-6a.6.6 0 1 1 1.2 0v3.6a.6.6 0 1 0 1.2 0v-3.6a.6.6 0 1 1 1.2 0v3.6a.6.6 0 1 0 1.2 0v-3.6a.6.6 0 1 1 1.2 0v3.6a.6.6 0 1 0 1.2 0v-3.6a.6.6 0 1 1 1.2 0v7.8h-9.42l-2.528-1.685a.507.507 0 0 1 .54-.857zM583.2 602.449a6.06 6.06 0 0 1 11.973-1.314l1.079 4.854H595.2a.6.6 0 0 0-.6.6v1.2h-.6a1.8 1.8 0 0 0 0 3.6h.6v1.2h-11.4zm0 0"/></g></g><path data-name="Path 4147" d="M10.8 21.589a1.8 1.8 0 1 0-1.8 1.8 1.8 1.8 0 0 0 1.8-1.8zm-1.8.6a.6.6 0 1 1 .6-.6.6.6 0 0 1-.6.6zm0 0" fill="#007ce1"/><path data-name="Path 4148" d="M29.4 23.389a1.8 1.8 0 1 0-1.8-1.8 1.8 1.8 0 0 0 1.8 1.8zm0-2.4a.6.6 0 1 1-.6.6.6.6 0 0 1 .6-.6zm0 0" fill="#007ce1"/><path data-name="Path 4149" d="m15.775 20.565 1.2-1.2.849.848-1.2 1.2zm0 0" fill="#007ce1"/><path data-name="Rectangle 1733" fill="#007ce1" d="M16.8 22.789h1.8v1.2h-1.8z"/><path data-name="Rectangle 1734" fill="#007ce1" d="M6.6 10.789h1.8v1.2H6.6z"/><path data-name="Path 4150" d="m6.867 8.289.666-1 1.8 1.2-.666 1zm0 0" fill="#007ce1"/></g></svg>