<svg xmlns="http://www.w3.org/2000/svg" width="36" height="36"><g data-name="Group 2594" fill="#007ce1"><path data-name="Path 4152" d="M8.118 28.135a.703.703 0 0 0 .994.995 3.023 3.023 0 0 1 4.276 0 .703.703 0 1 0 .994-.995 4.43 4.43 0 0 0-6.264 0zm0 0"/><path data-name="Path 4153" d="M5.371 24.6a2.885 2.885 0 0 0 3.533-2.039.703.703 0 0 0-1.358-.364 1.478 1.478 0 0 1-1.811 1.045.703.703 0 0 0-.364 1.358zm0 0"/><path data-name="Path 4154" d="M14.94 24.318a2.87 2.87 0 0 0 1.437.387 2.932 2.932 0 0 0 .752-.1.703.703 0 0 0-.364-1.359 1.478 1.478 0 0 1-1.811-1.045.703.703 0 0 0-1.358.364 2.865 2.865 0 0 0 1.344 1.752zm0 0"/><path data-name="Path 4155" d="M24.75 0a11.251 11.251 0 0 0-10.96 13.789 11.275 11.275 0 0 0-7.779 1 .703.703 0 1 0 .656 1.244 9.839 9.839 0 1 1-4.131 4.131.703.703 0 0 0-1.244-.656 11.249 11.249 0 1 0 20.919 2.7A11.25 11.25 0 1 0 24.75 0zm0 21.094a9.812 9.812 0 0 1-3.038-.481 11.318 11.318 0 0 0-6.325-6.325 9.844 9.844 0 1 1 9.363 6.806zm0 0"/><path data-name="Path 4156" d="M26.888 13.544a3.025 3.025 0 0 1-4.276 0 .703.703 0 0 0-.994.994 4.428 4.428 0 0 0 6.264 0 .703.703 0 0 0-.994-.994zm0 0"/><path data-name="Path 4157" d="M22.091 10.954a.7.7 0 0 0 .5-1.2 2.885 2.885 0 0 0-4.08 0 .705.705 0 0 0 1 .994 1.477 1.477 0 0 1 2.09 0 .7.7 0 0 0 .5.206zm0 0"/><path data-name="Path 4158" d="M28.951 8.909a2.867 2.867 0 0 0-2.04.845.703.703 0 0 0 .995.994 1.477 1.477 0 0 1 2.09 0 .705.705 0 1 0 1-.994 2.865 2.865 0 0 0-2.04-.845zm0 0"/><path data-name="Path 4159" d="M3.792 18a.7.7 0 1 0-.5-1.2.7.7 0 0 0 .5 1.2zm0 0"/></g></svg>