<svg xmlns="http://www.w3.org/2000/svg" width="45" height="36"><g data-name="Group 2581"><g data-name="Rectangle 28" fill="none" stroke="#007ce1" stroke-width="2"><path stroke="none" d="M0 0h25v36H0z"/><path d="M1 1h23v34H1z"/></g><path data-name="Rectangle 29" fill="#007ce1" d="M4 7h3v1H4z"/><path data-name="Rectangle 30" fill="#007ce1" d="M9 7h11v1H9z"/><path data-name="Rectangle 31" fill="#007ce1" d="M4 12h3v2H4z"/><path data-name="Rectangle 32" fill="#007ce1" d="M9 12h11v2H9z"/><path data-name="Rectangle 33" fill="#007ce1" d="M4 17h3v2H4z"/><path data-name="Rectangle 34" fill="#007ce1" d="M9 17h11v2H9z"/><path data-name="Rectangle 35" fill="#007ce1" d="M4 22h3v2H4z"/><path data-name="Rectangle 36" fill="#007ce1" d="M9 22h11v2H9z"/><path data-name="Rectangle 37" fill="#007ce1" d="M4 28h3v1H4z"/><path data-name="Rectangle 38" fill="#007ce1" d="M9 28h11v1H9z"/><path data-name="Line 7" fill="none" stroke="#007ce1" stroke-width="2" d="M17.295 12.794 30.68 23.576"/><g data-name="Rectangle 39" fill="none" stroke="#007ce1" stroke-width="2"><path stroke="none" d="M30 19h15v9H30z"/><path d="M31 20h13v7H31z"/></g><path data-name="Rectangle 40" fill="#007ce1" d="M34 23h3v2h-3z"/><path data-name="Rectangle 41" fill="#007ce1" d="M39 23h3v2h-3z"/></g></svg>