<svg data-name="Group 2687" xmlns="http://www.w3.org/2000/svg" width="42.937" height="48"><defs><clipPath id="a"><path data-name="Rectangle 1864" fill="#007ce1" d="M0 0h42.937v48H0z"/></clipPath></defs><g data-name="Group 2686" clip-path="url(#a)" fill="#007ce1"><path data-name="Path 4305" d="M35.063 0H2.813A2.816 2.816 0 0 0 0 2.813v42.375A2.816 2.816 0 0 0 2.813 48H24a.938.938 0 1 0 0-1.875H2.813a.938.938 0 0 1-.938-.937V2.813a.939.939 0 0 1 .938-.938h32.25a.937.937 0 0 1 .937.938v18.7a.938.938 0 1 0 1.876 0v-18.7A2.816 2.816 0 0 0 35.063 0"/><path data-name="Path 4306" d="M37.6 24.087a.939.939 0 1 0 .274.663.946.946 0 0 0-.274-.663"/><path data-name="Path 4307" d="M6.475 5.337A.936.936 0 1 0 6.75 6a.941.941 0 0 0-.275-.663"/><path data-name="Path 4308" d="M32.062 11.063a.938.938 0 0 0-.937.937v11.063H27.75V11.76l5.036-5.037A.938.938 0 0 0 31.46 5.4l-9.894 9.895-5.725-5.729a.938.938 0 0 0-1.326 0L6.75 17.331V9.778a.938.938 0 0 0-1.875 0V24a.938.938 0 0 0 .938.938h26.249A.938.938 0 0 0 33 24V12a.938.938 0 0 0-.938-.937m-21.937 12H6.75v-3.081l3.375-3.375zm5.25 0H12v-8.331l3.178-3.177.2.2zm5.25 0H17.25v-9.436L20.625 17zm5.25 0H22.5V17.01l3.375-3.375z"/><path data-name="Path 4309" d="M14.344 27.563H5.813a.938.938 0 1 0 0 1.875h8.531a.938.938 0 0 0 0-1.875"/><path data-name="Path 4310" d="M14.344 32.063H5.813a.938.938 0 1 0 0 1.875h8.531a.938.938 0 0 0 0-1.875"/><path data-name="Path 4311" d="M14.344 36.563H5.813a.938.938 0 1 0 0 1.875h8.531a.938.938 0 0 0 0-1.875"/><path data-name="Path 4312" d="M14.344 41.063H5.813a.938.938 0 1 0 0 1.875h8.531a.938.938 0 0 0 0-1.875"/><path data-name="Path 4313" d="M33 28.125a9.893 9.893 0 0 0-6.33 2.282l-.013-.014v-2.015a.938.938 0 1 0-1.875 0v.14l-.8-.8a.937.937 0 0 0-1.325 1.325l.8.8h-.139a.938.938 0 1 0 0 1.875h2.012l.015.013A9.934 9.934 0 1 0 33 28.125m0 18a8.057 8.057 0 0 1-6.321-13.059l1.336 1.334a6.2 6.2 0 1 0 1.326-1.326L28 31.741a8.061 8.061 0 1 1 5 14.384m0-5.25a2.813 2.813 0 1 0-1.212-5.351l-1.1-1.1a4.32 4.32 0 1 1-1.326 1.326l1.1 1.1A2.813 2.813 0 0 0 33 40.875m.058-3.747a.937.937 0 1 1-.992.992.543.543 0 0 0 .057 0 .934.934 0 0 0 .935-1"/></g></svg>