<svg data-name="Group 2689" xmlns="http://www.w3.org/2000/svg" width="51.411" height="48"><defs><clipPath id="a"><path data-name="Rectangle 1865" fill="#007ce1" d="M0 0h51.411v48H0z"/></clipPath></defs><g data-name="Group 2688" clip-path="url(#a)" fill="#007ce1"><path data-name="Path 4314" d="M48.788 0H2.621A2.624 2.624 0 0 0 0 2.621v32.605a2.626 2.626 0 0 0 2.621 2.624h13.558v3.927h-5.042a3.113 3.113 0 0 0-3.11 3.11V47a1 1 0 0 0 1 1h33.35a1 1 0 0 0 1-1v-2.113a3.115 3.115 0 0 0-3.113-3.11h-5.031V37.85h13.555a2.627 2.627 0 0 0 2.624-2.624V2.621A2.626 2.626 0 0 0 48.788 0m-7.411 44.887v1.1H10.035v-1.1a1.1 1.1 0 0 1 1.1-1.1h29.137a1.1 1.1 0 0 1 1.1 1.1m-8.152-3.11H18.187V37.85h15.038zm15.563-5.935H2.621a.622.622 0 0 1-.612-.616v-2.019H21.2a1 1 0 1 0 0-2.008H2.009V2.621a.62.62 0 0 1 .612-.612h46.167a.621.621 0 0 1 .615.612V31.2h-19.19a1 1 0 0 0 0 2.008H49.4v2.019a.623.623 0 0 1-.615.616"/><path data-name="Path 4315" d="M44.991 20.431H31.382a1 1 0 0 0-1 1v6.25a1 1 0 0 0 1 1.005h13.609a1 1 0 0 0 1-1.005v-6.25a1 1 0 0 0-1-1m-1 6.25h-11.6v-4.242h11.6z"/><path data-name="Path 4316" d="M26.373 13.5h-.143a10.428 10.428 0 0 0-.756-1.821l.1-.1a1.877 1.877 0 0 0 0-2.658l-1.727-1.727a1.877 1.877 0 0 0-2.658 0l-.1.1a10.446 10.446 0 0 0-1.823-.757V6.4a1.882 1.882 0 0 0-1.877-1.882H14.94A1.882 1.882 0 0 0 13.062 6.4v.139a10.523 10.523 0 0 0-1.823.757l-.1-.1a1.867 1.867 0 0 0-1.329-.55 1.857 1.857 0 0 0-1.322.55L6.75 8.922a1.878 1.878 0 0 0 0 2.654l.1.1A10.332 10.332 0 0 0 6.1 13.5h-.146a1.881 1.881 0 0 0-1.878 1.878v2.448a1.881 1.881 0 0 0 1.878 1.881H6.1a10.36 10.36 0 0 0 .754 1.82l-.1.1a1.886 1.886 0 0 0 0 2.654l1.733 1.732a1.885 1.885 0 0 0 2.656 0l.1-.1a10.5 10.5 0 0 0 1.823.754v.143a1.881 1.881 0 0 0 1.878 1.878h2.448a1.881 1.881 0 0 0 1.877-1.878v-.14a10.434 10.434 0 0 0 1.823-.754l.1.1a1.883 1.883 0 0 0 2.656 0l1.73-1.732a1.879 1.879 0 0 0 0-2.657l-.1-.1a10.418 10.418 0 0 0 .756-1.82h.143a1.882 1.882 0 0 0 1.878-1.882v-2.446a1.88 1.88 0 0 0-1.882-1.879m-.13 4.2h-.784a1 1 0 0 0-.979.785 8.461 8.461 0 0 1-1.11 2.672 1 1 0 0 0 .139 1.247l.555.555-1.547 1.541-.554-.553a1 1 0 0 0-1.247-.138 8.44 8.44 0 0 1-2.675 1.1 1.008 1.008 0 0 0-.784.982v.782H15.07V25.9a1.008 1.008 0 0 0-.785-.982 8.444 8.444 0 0 1-2.674-1.1 1 1 0 0 0-1.247.138l-.554.544-1.549-1.543.556-.554a1 1 0 0 0 .139-1.25 8.435 8.435 0 0 1-1.109-2.67 1 1 0 0 0-.979-.785h-.784v-2.189h.784a1 1 0 0 0 .979-.785 8.416 8.416 0 0 1 1.109-2.67 1 1 0 0 0-.138-1.248l-.556-.557L9.81 8.7l.554.555a1 1 0 0 0 1.247.139 8.542 8.542 0 0 1 2.677-1.111 1 1 0 0 0 .782-.979v-.781h2.187v.783a1 1 0 0 0 .782.979A8.542 8.542 0 0 1 20.716 9.4a1 1 0 0 0 1.246-.139l.554-.555 1.546 1.547-.555.557a1 1 0 0 0-.137 1.246 8.455 8.455 0 0 1 1.109 2.672 1 1 0 0 0 .98.785h.784z"/><path data-name="Path 4317" d="M22.009 13.628a1.007 1.007 0 0 0-.478-.74l-4.849-2.924a1 1 0 0 0-1.037 0l-4.853 2.923a1.017 1.017 0 0 0-.486.86v5.713a1 1 0 0 0 .486.86l4.853 2.923a1.015 1.015 0 0 0 1.037 0l4.849-2.923a1 1 0 0 0 .486-.86v-5.713a.939.939 0 0 0-.008-.119M16.163 12l2.905 1.75-2.905 1.75-2.907-1.751zm-3.849 3.527 2.845 1.714v3.368l-2.845-1.713zm7.7 3.369-2.842 1.713v-3.371l2.842-1.713z"/><path data-name="Path 4318" d="M35.891 8.612h9.1a1 1 0 0 0 0-2.008h-9.1a1 1 0 0 0 0 2.008"/><path data-name="Path 4319" d="M31.382 8.612h.006a1.007 1.007 0 1 0-.006 0"/><path data-name="Path 4320" d="M35.888 12.961h9.1a1 1 0 0 0 0-2.008h-9.1a1 1 0 1 0 0 2.008"/><path data-name="Path 4321" d="M31.381 12.961a1 1 0 1 0-1.007-1 1 1 0 0 0 1.007 1"/><path data-name="Path 4322" d="M35.882 17.31h9.1a1 1 0 1 0 0-2.008h-9.1a1 1 0 1 0 0 2.008"/><path data-name="Path 4323" d="M31.375 17.31h.006a1.008 1.008 0 1 0-.006 0"/><path data-name="Path 4324" d="M25.7 31.2a1 1 0 0 0 0 2.008 1 1 0 1 0 0-2.008"/></g></svg>