<?xml version="1.0" ?><svg id="Layer_1" style="enable-background:new 0 0 52 52;" version="1.1" viewBox="0 0 52 52" xml:space="preserve" xmlns="http://www.w3.org/2000/svg" xmlns:xlink="http://www.w3.org/1999/xlink"><style type="text/css">
	.st0{fill:#231F20;}
</style><g><g><path class="st0" d="M6.0279708,3.405916c11.6723499,0.0007145,23.3446999,0.0014288,35.0170517,0.0021434    c3.8205833,0.0002339,7.5092621,1.0132768,7.5830269,5.568923c0.0482788,2.9816465,0.0458832,5.9650621,0.068821,8.9469833    c0.0458679,5.9635563,2.2723045,17.0643234-5.25457,18.9033813c-2.3207169,0.5670242-5.5121422,0.0032005-7.9119186,0.0045929    c-2.9669724,0.0017204-5.9339428,0.0034447-8.9009132,0.0051651c-5.9339409,0.0034447-11.8678808,0.0068893-17.8018208,0.010334    c-4.5520124,0.0026436-5.2570367-1.7685204-5.3965359-5.8538017c-0.0982127-2.8761997-0.0504923-5.7591114-0.0424819-8.6365929    C3.3936999,20.5353451,2.7686069,2.782593,5.700366,3.5257728c1.4040942,0.3559279,2.0030775-1.8134859,0.5981393-2.1696277    c-5.4756322-1.3880336-5.0168653,5.5479841-5.0697861,8.9610367c-0.0670085,4.32164-0.0824498,8.6439638-0.0925431,12.9660482    c-0.009756,4.177618-0.7646928,9.5015602,0.4626459,13.5459671c0.4316562,1.4224205,0.5568079,1.7951927,1.9848038,2.2309265    c3.4278152,1.0459595,8.5892429,0.0353737,12.1669512,0.0332985c9.4006376-0.0054588,18.9070511,0.4090042,28.2946091-0.0288658    c6.0945892-0.2842712,6.9947472-3.6776466,6.9934387-9.2112808c-0.0010948-4.6388035-0.0713692-9.278801-0.107048-13.9175291    c-0.0270615-3.518177,0.621273-7.7596474-0.4441185-11.1685257C48.7039261-0.9394544,39.642849,1.1579735,35.208847,1.1577021    c-9.7269592-0.0005953-19.4539185-0.0011907-29.1808758-0.001786C4.5801992,1.1558274,4.5778089,3.4058273,6.0279708,3.405916    L6.0279708,3.405916z"/></g><g><path class="st0" d="M2.8615649,30.499876c15.5555668-0.0103703,31.1111336-0.0207424,46.6667023-0.0311127    c1.4477234-0.0009651,1.4502068-2.250967,0-2.25c-15.5555687,0.0103703-31.1111355,0.0207424-46.6667023,0.0311127    C1.4138393,28.2508411,1.411358,30.500843,2.8615649,30.499876L2.8615649,30.499876z"/></g><g><path class="st0" d="M20.6120911,14.2449656c1.9661541-0.0027609,3.9323101-0.0055208,5.8984661-0.0082808    c0.873848-0.0012274,1.747694-0.0024538,2.6215401-0.0036802c1.5191822-0.0021334,1.9559612-0.4782314,2.2742462,1.3312273    c0.5851555,3.3266411,1.0816898,6.4783516,2.0951595,9.7331657c0.3616028-0.4746895,0.7232094-0.949379,1.0848122-1.4240685    c-5.5207634,0.0385208-11.0414925,0.0482235-16.5623569,0.029108c0.3616047,0.2753086,0.7232094,0.5506191,1.0848141,0.8259296    c-0.3260784-1.5939331,1.1391468-3.67449,1.4183426-5.296896c0.3356838-1.9506474-0.0319157-3.9478445,0.3994656-5.8821859    c0.3145847-1.4106226-1.8540859-2.013052-2.1696281-0.5981388c-0.5224857,2.342865,0.0109081,4.7774115-0.6455841,7.1021967    c-0.548811,1.9434643-1.5994072,3.1850071-1.172224,5.2731628c0.0982876,0.4804478,0.6150436,0.8243046,1.0848141,0.8259315    c5.5208645,0.0191154,11.0415955,0.0094128,16.5623569-0.029108c0.709938-0.0049553,1.3047638-0.7176971,1.084816-1.4240704    c-0.8047638-2.5845375-1.5434494-5.1533375-1.8822174-7.8485603c-0.1513786-1.2043629,0.0811005-3.3817034-0.9497986-4.3341799    c-0.9267635-0.8562641-2.6230602-0.5350361-3.7070179-0.533514c-2.8400021,0.0039864-5.6800041,0.0079737-8.5200062,0.011961    C19.1644135,11.9969978,19.1618404,14.2470016,20.6120911,14.2449656L20.6120911,14.2449656z"/></g><g><path class="st0" d="M24.3187904,12.86551c0.0003929-1.1830664-0.6259003-5.3671865,1.3618679-5.2207232    c1.9805698,0.1459332,1.5191517,3.4296284,1.428709,4.715106c-0.1016674,1.4450035,2.1487808,1.4386387,2.25,0    c0.1914959-2.7217865,0.0121231-6.9018784-3.678709-6.965106c-4.0424194-0.0692506-3.6109657,4.7451525-3.6118679,7.4707232    C22.0683117,14.3132982,24.3183117,14.3156548,24.3187904,12.86551L24.3187904,12.86551z"/></g><g><path class="st0" d="M25.944891,35.1567345c1.4477692,0,1.4501667-2.25,0-2.25    C24.4971237,32.9067345,24.4947262,35.1567345,25.944891,35.1567345L25.944891,35.1567345z"/></g><g><path class="st0" d="M35.4448929,48.8273659c-6.5071297-0.0040817-13.0142612-0.0081596-19.5213928-0.0122375    c0.323802,0.56427,0.647603,1.12854,0.9714041,1.6928101c1.7009201-3.7833405,4.7866306-4.5400314,8.6670246-4.5430717    c3.5248413-0.0027657,7.4695206,0.2917709,8.4625015,4.4500046c0.3361702,1.4077682,2.5063019,0.8117294,2.1696281-0.5981369    c-1.0793877-4.5200691-5.0574894-6.0582466-9.2101669-6.097538c-5.3265743-0.0503998-9.6143513,0.2760239-12.0317955,5.6531219    c-0.3389254,0.7538681,0.0501413,1.692234,0.9714041,1.6928101c6.5071325,0.0040779,13.0142641,0.0081558,19.5213928,0.0122375    C36.8927002,51.0782738,36.8950195,48.8282738,35.4448929,48.8273659L35.4448929,48.8273659z"/></g><g><path class="st0" d="M31.0124111,37.9566154c-0.4881859,1.0041084-1.0447845,2.0064621-1.3953934,3.0701561    c-0.3595505,1.0908203-0.3473568,2.2014656-0.2643566,3.3337479c0.1052246,1.435482,2.3560677,1.4469833,2.25,0    c-0.068552-0.9351883-0.1115532-1.8315086,0.1839848-2.735611c0.2861805-0.8754768,0.7667561-1.7062073,1.1685734-2.5326767    C33.5857658,37.7953186,31.6460991,36.6532326,31.0124111,37.9566154L31.0124111,37.9566154z"/></g><g><path class="st0" d="M19.3685856,39.3453255c2.004612,1.1439095,1.8021412,3.5106049,1.6442947,5.509964    c-0.1139793,1.4436913,2.1366062,1.4362717,2.25,0c0.226799-2.8727417,0.0043163-5.8761024-2.7586765-7.452774    C19.2445984,36.6837349,18.1097469,38.6269836,19.3685856,39.3453255L19.3685856,39.3453255z"/></g></g></svg>