<svg xmlns="http://www.w3.org/2000/svg" width="1961.269" height="303.397"><g data-name="Group 3716"><g data-name="Group 3427"><path data-name="Line 188" fill="none" stroke="#c2c4cb" d="m569.052 302.915 89.213-157.951"/><path data-name="Line 189" fill="none" stroke="#c2c4cb" d="m880.566 222.478-210.601-78.976"/><path data-name="Line 190" fill="none" stroke="#c2c4cb" d="m903.967 222.478 55.575-33.638"/><path data-name="Line 191" fill="none" stroke="#c2c4cb" d="m966.854 188.84 105.301 114.076"/><g data-name="Group 3422"><path data-name="Path 3832" d="M960.948 183.137a3.689 3.689 0 1 1 .3 5.208 3.688 3.688 0 0 1-.3-5.208z" fill="#fff"/><path data-name="Path 3833" d="M960.947 183.137a3.689 3.689 0 1 0 5.208-.3 3.689 3.689 0 0 0-5.207.298m-1.345-1.197a5.489 5.489 0 1 1 .445 7.75 5.5 5.5 0 0 1-.445-7.75z" fill="#1971b9"/></g><path data-name="Line 192" fill="none" stroke="#c2c4cb" d="m664.115 144.964 68.738 157.951"/><path data-name="Line 193" fill="none" stroke="#c2c4cb" d="m884.954 237.103-39.488 65.813"/><g data-name="Group 3425"><path data-name="Path 3828" d="M899.652 233.672a10.232 10.232 0 1 1-.832-14.447 10.23 10.23 0 0 1 .832 14.447z" fill="#fff"/><path data-name="Path 3829" d="M884.373 220.058a10.232 10.232 0 1 0 14.447-.832 10.23 10.23 0 0 0-14.447.832m-2.118-1.886a13.068 13.068 0 1 1 1.064 18.45 13.084 13.084 0 0 1-1.061-18.448z" fill="#1971b9"/></g><path data-name="Line 197" fill="none" stroke="#c2c4cb" d="M307.248 29.426 655.34 139.114"/><path data-name="Line 198" fill="none" stroke="#c2c4cb" d="m213.662 241.49 68.724-201.826"/><path data-name="Line 199" fill="none" stroke="#c2c4cb" d="m.135 302.915 209.139-58.5"/><path data-name="Line 200" fill="none" stroke="#c2c4cb" d="m286.787 302.915-73.125-58.5"/><g data-name="Group 3438"><path data-name="Path 3832" d="M210.68 242.4a3.689 3.689 0 1 1 .3 5.208 3.688 3.688 0 0 1-.3-5.208z" fill="#fff"/><path data-name="Path 3833" d="M210.68 242.4a3.689 3.689 0 1 0 5.208-.3 3.689 3.689 0 0 0-5.207.298m-1.345-1.197a5.489 5.489 0 1 1 .445 7.75 5.5 5.5 0 0 1-.445-7.75z" fill="#1971b9"/></g><g data-name="Group 3439"><path data-name="Path 3828" d="M301.66 34.273a13.882 13.882 0 1 1-1.13-19.6 13.878 13.878 0 0 1 1.13 19.6z" fill="#fff"/><path data-name="Path 3829" d="M280.932 15.802a13.882 13.882 0 1 0 19.599-1.129 13.878 13.878 0 0 0-19.6 1.129m-2.872-2.559a17.728 17.728 0 1 1 1.44 25.028 17.749 17.749 0 0 1-1.44-25.028z" fill="#1971b9"/></g><g data-name="Group 3440"><path data-name="Path 3832" d="M658.089 136.71a5.807 5.807 0 1 1 .472 8.2 5.8 5.8 0 0 1-.472-8.2z" fill="#fff"/><path data-name="Path 3833" d="M658.089 136.712a5.807 5.807 0 1 0 8.196-.47 5.807 5.807 0 0 0-8.196.47m-2.115-1.885a8.641 8.641 0 1 1 .7 12.203 8.65 8.65 0 0 1-.7-12.203z" fill="#1971b9"/></g></g><g data-name="Group 3703"><path data-name="Line 188" fill="none" stroke="#c2c4cb" d="m1615.909 302.916-29.274-69.5"/><path data-name="Line 189" fill="none" stroke="#c2c4cb" d="m1426.878 254.105 153.757-22.689"/><path data-name="Line 190" fill="none" stroke="#c2c4cb" d="m1412.679 254.105-93.044-33.689"/><path data-name="Line 191" fill="none" stroke="#c2c4cb" d="m1314.635 221.416-243 81"/><g data-name="Group 3422"><path data-name="Path 3832" d="M1319.102 218.232a2.239 2.239 0 1 0-.182 3.16 2.238 2.238 0 0 0 .182-3.16z" fill="#fff"/><path data-name="Path 3833" d="M1319.102 218.232a2.239 2.239 0 1 1-3.16-.18 2.239 2.239 0 0 1 3.16.18m.815-.726a3.331 3.331 0 1 0-.27 4.703 3.335 3.335 0 0 0 .27-4.703z" fill="#1971b9"/></g><path data-name="Line 192" fill="none" stroke="#c2c4cb" d="m1582.635 233.416-66.122 69.5"/><path data-name="Line 193" fill="none" stroke="#c2c4cb" d="m1424.216 262.98 23.962 39.936"/><g data-name="Group 3425"><path data-name="Path 3828" d="M1415.297 260.898a6.209 6.209 0 1 0 .505-8.766 6.208 6.208 0 0 0-.505 8.766z" fill="#fff"/><path data-name="Path 3829" d="M1424.569 252.636a6.209 6.209 0 1 1-8.768-.503 6.208 6.208 0 0 1 8.768.503m1.285-1.144a7.93 7.93 0 1 0-.644 11.195 7.939 7.939 0 0 0 .644-11.195z" fill="#1971b9"/></g><path data-name="Line 197" fill="none" stroke="#c2c4cb" d="m1774.775 136.959-186.14 90.457"/><path data-name="Line 198" fill="none" stroke="#c2c4cb" d="m1831.565 265.642-41.702-122.471"/><path data-name="Line 199" fill="none" stroke="#c2c4cb" d="m1961.135 302.916-126.908-35.499"/><path data-name="Line 200" fill="none" stroke="#c2c4cb" d="m1787.192 302.916 44.373-35.499"/><g data-name="Group 3438"><path data-name="Path 3832" d="M1833.374 266.194a2.239 2.239 0 1 0-.182 3.16 2.238 2.238 0 0 0 .182-3.16z" fill="#fff"/><path data-name="Path 3833" d="M1833.374 266.194a2.239 2.239 0 1 1-3.16-.18 2.239 2.239 0 0 1 3.16.18m.815-.726a3.331 3.331 0 1 0-.27 4.703 3.335 3.335 0 0 0 .27-4.703z" fill="#1971b9"/></g><g data-name="Group 3439"><path data-name="Path 3828" d="M1778.166 139.9a8.424 8.424 0 1 0 .685-11.893 8.422 8.422 0 0 0-.685 11.893z" fill="#fff"/><path data-name="Path 3829" d="M1790.743 128.69a8.424 8.424 0 1 1-11.893-.684 8.422 8.422 0 0 1 11.893.685m1.744-1.552a10.758 10.758 0 1 0-.874 15.186 10.771 10.771 0 0 0 .874-15.186z" fill="#1971b9"/></g><g data-name="Group 3440"><path data-name="Path 3832" d="M1586.88 226.677a3.524 3.524 0 1 0-.286 4.975 3.522 3.522 0 0 0 .286-4.975z" fill="#fff"/><path data-name="Path 3833" d="M1586.88 226.677a3.524 3.524 0 1 1-4.974-.286 3.524 3.524 0 0 1 4.974.286m1.283-1.144a5.243 5.243 0 1 0-.425 7.404 5.249 5.249 0 0 0 .425-7.404z" fill="#1971b9"/></g></g></g></svg>