<svg xmlns="http://www.w3.org/2000/svg" width="96.098" height="96"><g data-name="Group 2994" fill="#202832"><path data-name="Path 1126" d="M96.1 18.58V3.1H77.5v6.194h-6.2v21.678h-3.1V0H28.807L12.4 16.392v28.086a12.335 12.335 0 0 0 1.474 17.766A17.055 17.055 0 0 0 0 78.968V96h35.648V76.136a2.817 2.817 0 0 1 .831-2l9.111-9.1H68.2V34.064h3.1v21.678h6.2v6.194h18.6V46.452H77.5v6.194h-3.1V34.064h3.1v6.194h18.6V24.774H77.5v6.194h-3.1v-18.58h3.1v6.192zM80.6 6.194H93v9.29H80.6zm-52.7-.908v10.2l-10.208 9.29zm-15.5 47.36a9.3 9.3 0 1 1 9.3 9.29 9.305 9.305 0 0 1-9.3-9.29zm13.882 11.5a4.629 4.629 0 0 1-9.167 0 12.3 12.3 0 0 0 9.167 0zm8 7.8a5.892 5.892 0 0 0-1.738 4.192L22.336 92.9H.636V74.322h-3.1V92.9H3.1V78.968a13.961 13.961 0 0 1 11.1-13.64 7.715 7.715 0 0 0 15.2-1.286 23.391 23.391 0 0 0 10.917-6.122l8.382-8.372 5.37-5.364a2.833 2.833 0 1 1 4.008 4zM46.5 46.452h-3.1V34.064h3.1zm9.3-6.168V21.678h3.1V41.01a5.865 5.865 0 0 0-2.835-.752c-.088 0-.176.022-.264.026zm9.3 21.652H48.691l11.568-11.558a5.879 5.879 0 0 0 1.74-4.192V18.58h-9.3v22.732a5.989 5.989 0 0 0-.831.682l-2.27 2.268V30.968h-9.3v18.58h4.008l-6.188 6.182a20.194 20.194 0 0 1-6.521 4.342 12.2 12.2 0 0 0 2.094-10.524H37.2v-27.87h-9.3v20.256a12.3 12.3 0 0 0-12.4 0V18.58H31V3.1h34.1zM31 44.478v-19.7h3.1v21.678h-1.676A12.858 12.858 0 0 0 31 44.478zm49.6 5.07H93v9.29H80.6zm0-21.678L93 37.16v9.292H80.6zm0 0"/><path data-name="Rectangle 359" d="M83.698 9.3h6.2v3.1h-6.2z"/><path data-name="Rectangle 360" d="M83.698 30.967h6.2v3.1h-6.2z"/><path data-name="Rectangle 361" d="M83.698 52.643h6.2v3.1h-6.2z"/><path data-name="Rectangle 362" d="M58.899 6.2h3.1v3.1h-3.1z"/><path data-name="Rectangle 363" d="M52.699 6.2h3.1v3.1h-3.1z"/><path data-name="Rectangle 364" d="M34.099 6.2h15.5v3.1h-15.5z"/><path data-name="Rectangle 365" d="M34.099 12.4h27.899v3.1H34.099z"/><path data-name="Rectangle 366" d="M18.6 21.677h3.1v3.1h-3.1z"/><path data-name="Rectangle 367" d="M18.6 27.87h3.1v3.1h-3.1z"/><path data-name="Rectangle 368" d="M18.6 34.063h3.1v3.1h-3.1z"/></g></svg>