<svg xmlns="http://www.w3.org/2000/svg" width="60" height="60"><defs><clipPath id="a"><path data-name="Rectangle 2357" transform="translate(459 893)" fill="#202832" d="M0 0h60v60H0z"/></clipPath></defs><g data-name="Group 3667"><g data-name="Group 3666"><g data-name="Group 3665" clip-path="url(#a)" transform="translate(-459 -893)"><path data-name="Path 6099" d="M516 903h-7.08a9.589 9.589 0 0 0-18.92-3v3h-2v-3a7 7 0 0 0-13.382-2.862A7.013 7.013 0 0 0 469.08 903H462a3 3 0 0 0-3 3v32a3 3 0 0 0 3 3h21.719l-1.5 6H481a3 3 0 0 0-3 3v2a1 1 0 0 0 1 1h20a1 1 0 0 0 1-1v-2a3 3 0 0 0-3-3h-1.219l-1.5-6H516a3 3 0 0 0 3-3v-32a3 3 0 0 0-3-3zm-24-3a4.988 4.988 0 0 1 9.036-2.926A7.007 7.007 0 0 0 495 904h2a5 5 0 0 1 4.9-4.99A5 5 0 0 1 497 905v2a7.009 7.009 0 0 0 7-7c0-.2-.013-.4-.03-.592A5 5 0 0 1 502 909v2a6.988 6.988 0 0 0 5.634-2.863A5 5 0 1 1 498 910h-2a7 7 0 0 0 5.908 6.906A4.995 4.995 0 0 1 492 916zm-17.97-.592a6.74 6.74 0 0 0-.03.592 7.008 7.008 0 0 0 7 7v-2a5 5 0 0 1-4.9-5.99A5 5 0 0 1 481 904h2a7.007 7.007 0 0 0-6.036-6.926A4.988 4.988 0 0 1 486 900v16a4.995 4.995 0 0 1-9.908.906A7 7 0 0 0 482 910h-2a5 5 0 1 1-9.634-1.863A6.988 6.988 0 0 0 476 911v-2a5 5 0 0 1-1.97-9.592zM462 905h7.08a6.874 6.874 0 0 0 .213.992 6.956 6.956 0 0 0 4.776 10.939A7 7 0 0 0 480 922.92V925h-10.184a3 3 0 1 0 0 2H481a1 1 0 0 0 1-1v-3.08a7 7 0 0 0 6-6.92v-11h2v11a7 7 0 0 0 6 6.92V926a1 1 0 0 0 1 1h11.184a3 3 0 1 0 0-2H498v-2.08a7 7 0 0 0 5.931-5.989 6.956 6.956 0 0 0 4.776-10.939 6.874 6.874 0 0 0 .213-.992H516a1 1 0 0 1 1 1v25h-56v-25a1 1 0 0 1 1-1zm6 21a1 1 0 1 1-1-1 1 1 0 0 1 1 1zm42 0a1 1 0 1 1 1 1 1 1 0 0 1-1-1zm-12 24v1h-18v-1a1 1 0 0 1 1-1h16a1 1 0 0 1 1 1zm-4.281-3h-9.438l1.5-6h6.438zM516 939h-54a1 1 0 0 1-1-1v-5h56v5a1 1 0 0 1-1 1zm0 0" fill="#202832"/></g></g><path data-name="Path 6100" d="M30 36a2.993 2.993 0 0 0 1-5.816V29h-2v1.184A2.993 2.993 0 0 0 30 36zm0-4a1 1 0 1 1-1 1 1 1 0 0 1 1-1zm0 0" fill="#202832"/></g></svg>