<svg xmlns="http://www.w3.org/2000/svg" width="96.016" height="96"><g data-name="Group 2996" fill="#202832"><path data-name="Path 1139" d="M80.451 86.619a1.874 1.874 0 1 0 1.875-1.875 1.874 1.874 0 0 0-1.875 1.875z"/><path data-name="Path 1140" d="M70.505 84.744a1.874 1.874 0 1 0 1.875 1.875 1.874 1.874 0 0 0-1.875-1.875z"/><path data-name="Path 1141" d="M59.257 84.744a1.874 1.874 0 1 0 1.873 1.875 1.874 1.874 0 0 0-1.873-1.875z"/><path data-name="Path 1142" d="M46.884 84.744a1.874 1.874 0 1 0 1.873 1.875 1.875 1.875 0 0 0-1.873-1.875z"/><path data-name="Path 1143" d="M35.634 84.744a1.874 1.874 0 1 0 1.875 1.875 1.874 1.874 0 0 0-1.875-1.875z"/><path data-name="Path 1144" d="M24.386 84.744a1.874 1.874 0 1 0 1.875 1.875 1.874 1.874 0 0 0-1.875-1.875z"/><path data-name="Path 1145" d="M13.128 84.744a1.874 1.874 0 1 0 1.875 1.875 1.874 1.874 0 0 0-1.875-1.875z"/><path data-name="Path 1146" d="M18.762 77.222H9.39A9.389 9.389 0 1 0 9.39 96h77.236a9.389 9.389 0 1 0 0-18.778H84.19V58.116a1.874 1.874 0 0 0-1.874-1.874h-15.56a1.874 1.874 0 0 0-1.876 1.874v19.106H48.758v-24.73a14.875 14.875 0 0 0-3.034-9.046 15.108 15.108 0 0 0-7.228-5.184l-12.3-11.706 38.306-4.66a12.992 12.992 0 0 0 2.258 1.994V30h-1.876a1.872 1.872 0 0 0-1.676 1.036l-3.75 7.5a1.874 1.874 0 0 0 .352 2.164l7.5 7.5a1.875 1.875 0 0 0 2.652-2.652L63.412 39l2.628-5.254h16.428L85.096 39l-6.544 6.544a1.875 1.875 0 0 0 2.652 2.652l7.5-7.5a1.877 1.877 0 0 0 .352-2.164l-3.75-7.5A1.872 1.872 0 0 0 83.628 30h-1.876v-6.11A13.122 13.122 0 1 0 62.698 6.9l-45.684.972a1.832 1.832 0 0 0-.472.074 13.123 13.123 0 1 0-4.132 25.776l8.522 11a14.852 14.852 0 0 0-2.17 7.768zm73.474 9.39a5.613 5.613 0 0 1-5.61 5.608L9.39 67.488a5.609 5.609 0 0 1 0-11.218h11.248a2.115 2.115 0 0 0 .228-.014h25.788a2.185 2.185 0 0 0 .23.014h19.872a2.181 2.181 0 0 0 .228-.014h15.1a2.185 2.185 0 0 0 .23.014h4.312a15.428 15.428 0 0 1 5.61 30.342zM68.63 59.99h11.81v17.248H68.63zm-23.626-7.498a11.25 11.25 0 0 1-22.5 0 11.257 11.257 0 0 1 14.47-10.782 11.31 11.31 0 0 1 8.03 10.782zm17.224-34.1-36.152 4.4a13.257 13.257 0 0 0 .182-2.17 13.115 13.115 0 0 0-3.68-9.116l38.778-.826a13.245 13.245 0 0 0-.23 2.442 13.046 13.046 0 0 0 1.106 5.272zM23.27 28.952l9.05 8.612a15.1 15.1 0 0 0-8.982 4.146l-6.572-8.482a13.212 13.212 0 0 0 6.508-4.274zM70.504 30v-4.3a13.15 13.15 0 0 0 7.5 0V30zm3.75-26.246a9.377 9.377 0 1 1-7.474 15.028 9.378 9.378 0 0 1-1.166-9.3 9.363 9.363 0 0 1 8.64-5.732zM3.766 20.626a9.373 9.373 0 1 1 18.746 0 9.348 9.348 0 0 1-1.176 4.55 9.41 9.41 0 0 1-7.592 4.8 1.868 1.868 0 0 0-.984.014 9.383 9.383 0 0 1-8.994-9.368zM33.76 67.494A14.962 14.962 0 0 0 45.004 62.4v14.842h-22.5V62.4a14.962 14.962 0 0 0 11.256 5.09z"/><path data-name="Path 1147" d="M74.257 18.734a5.621 5.621 0 1 0-5.62-5.62 5.628 5.628 0 0 0 5.62 5.62zm0-7.495a1.874 1.874 0 1 1-1.873 1.875 1.876 1.876 0 0 1 1.873-1.871z"/><path data-name="Path 1148" d="M13.128 26.239a5.62 5.62 0 1 0-5.62-5.62 5.625 5.625 0 0 0 5.62 5.62zm0-7.493a1.873 1.873 0 1 1-1.873 1.873 1.876 1.876 0 0 1 1.873-1.873z"/><path data-name="Path 1149" d="M26.266 52.493a7.493 7.493 0 1 0 7.492-7.495 7.5 7.5 0 0 0-7.492 7.495zm11.24 0a3.747 3.747 0 1 1-3.747-3.747 3.751 3.751 0 0 1 3.747 3.747z"/></g></svg>