<svg xmlns="http://www.w3.org/2000/svg" width="85.694" height="96"><g data-name="Group 3407" fill="#202832"><path data-name="Path 5022" d="M78.118 11.631A34.115 34.115 0 0 0 51.99 0H41.975a33.659 33.659 0 0 0-14.773 3.219A33.165 33.165 0 0 0 8.25 33.267a12.933 12.933 0 0 1-4.877 10.148L0 46.115l.753 1.175a90.188 90.188 0 0 1 11.427 26.2l.483 1.872a10.878 10.878 0 0 0 5.682 7.185 10.664 10.664 0 0 0 9.71-.222L50.817 69.48l-1.522-2.7-22.737 12.832a7.557 7.557 0 0 1-6.867.144 7.788 7.788 0 0 1-4.03-5.17l-.484-1.872c-.128-.5-.277-.991-.413-1.488h4.325v-3.1h-5.234a93.151 93.151 0 0 0-9.752-21.332l1.2-.962a16.015 16.015 0 0 0 6.042-12.568 30.09 30.09 0 0 1 17.2-27.259A30.617 30.617 0 0 1 41.975 3.1H51.99c.391 0 .776.017 1.163.029v4.616h3.1V3.378a30.521 30.521 0 0 1 19.511 10.266 29.031 29.031 0 0 1 6.428 23.816 29.44 29.44 0 0 1-3.969 10.8c-8.3 13.534-12.68 28.3-12.68 42.7v1.94h-9.29V63.484h-3.1V92.9H37.669V80.516h-3.1V96h34.064v-5.043c0-13.83 4.227-28.037 12.223-41.087a32.48 32.48 0 0 0 4.387-11.927 32.077 32.077 0 0 0-7.125-26.312z"/><path data-name="Rectangle 2314" d="M15.992 38.71h9.29v3.097h-9.29z"/><path data-name="Path 5023" d="M63.995 32.516a9.29 9.29 0 1 0-9.29 9.29 9.3 9.3 0 0 0 9.29-9.29zm-9.29 6.194a6.194 6.194 0 1 1 6.193-6.194 6.2 6.2 0 0 1-6.196 6.194z"/><path data-name="Path 5024" d="m47.464 49.613.265.109 1.118 4.472h11.709l1.118-4.472.265-.109 3.953 2.369 8.277-8.277-2.37-3.953.11-.265 4.47-1.116V26.662l-4.47-1.118q-.211-.521-.457-1.035l-2.795 1.334a14.951 14.951 0 0 1 .63 1.52l.278.787 3.717.93v6.872l-3.717.931-.278.786a14.732 14.732 0 0 1-.63 1.518l-.359.749 1.971 3.289-4.859 4.86-3.287-1.971-.751.359a15.368 15.368 0 0 1-1.52.63l-.785.278-.93 3.716h-6.871l-.929-3.716-.784-.278a15.368 15.368 0 0 1-1.52-.63l-.751-.359-3.287 1.971-5.714-5.713-2.186 2.189 7.423 7.423z"/><path data-name="Path 5025" d="M33.024 26.662v11.709l4.47 1.118c.141.348.295.693.459 1.034l2.793-1.336a15.536 15.536 0 0 1-.63-1.518l-.277-.786-3.718-.931V29.08l3.718-.93.277-.787a15.192 15.192 0 0 1 .63-1.52l.358-.75-1.971-3.286 4.858-4.86 3.288 1.971.751-.359a15.617 15.617 0 0 1 1.52-.63l.784-.277.929-3.717h6.871l.929 3.717.784.277a15.617 15.617 0 0 1 1.52.63l.751.359 3.288-1.971 5.713 5.714 2.19-2.19-7.423-7.423-3.953 2.369c-.089-.035-.177-.072-.265-.108l-1.112-4.47H48.847l-1.118 4.471-.265.109-3.953-2.369-8.277 8.277 2.37 3.954-.11.264z"/><path data-name="Rectangle 2315" d="M53.153 17.032h3.097v3.097h-3.097z"/><path data-name="Rectangle 2316" d="m42.659 22.664 2.19-2.19 2.19 2.19-2.19 2.19z"/><path data-name="Rectangle 2317" d="M39.218 30.968h3.097v3.097h-3.097z"/><path data-name="Rectangle 2318" d="m42.658 42.361 2.19-2.19 2.19 2.19-2.19 2.19z"/><path data-name="Rectangle 2319" d="M53.153 44.903h3.097V48h-3.097z"/><path data-name="Rectangle 2320" d="m62.36 42.376 2.19-2.19 2.19 2.19-2.19 2.19z"/><path data-name="Rectangle 2321" d="M67.089 30.968h3.097v3.097h-3.097z"/><path data-name="Rectangle 2322" d="m62.36 22.67 2.19-2.19 2.19 2.19-2.19 2.19z"/><path data-name="Rectangle 2323" d="M53.153 57.29h3.097v3.097h-3.097z"/></g></svg>